<svg width="654" height="269" viewBox="0 0 654 269" fill="none" xmlns="http://www.w3.org/2000/svg">
<path d="M0 85.5L145 0L327 56.652V188.5L237.5 211.5H41L40 86.5H12.5V90.5H0V85.5Z" fill="#118C4F"/>
<path d="M654 85.5L509 0L327 56.652V188.5L416.5 211.5H613L614 86.5H641.5V90.5H654V85.5Z" fill="#118C4F"/>
<path fill-rule="evenodd" clip-rule="evenodd" d="M507.628 7.41418L641.663 86.5H614.492L613.5 211.508L611.5 211.492L612.508 84.5H634.337L507.372 9.58579L401 91L327.502 65.0459L253 91L199.316 50.2927L145.631 9.58544L19.6385 84.5H42V211.5H40V86.5H12.3616L145.369 7.41454L253 93.5L327.502 66.5L401 93L507.628 7.41418Z" fill="white"/>
<path d="M164.835 182.197C160.275 182.197 155.601 182.083 150.813 181.855C146.139 181.627 141.921 181.399 138.159 181.171C134.397 181.057 131.775 181 130.293 181C128.013 181 125.334 181 122.256 181C119.292 181.114 116.214 181.228 113.022 181.342C109.944 181.456 107.151 181.513 104.643 181.513C103.959 181.513 103.275 181.285 102.591 180.829C101.907 180.373 101.565 179.746 101.565 178.948C101.565 177.922 101.85 177.124 102.42 176.554C102.99 175.87 103.788 175.414 104.814 175.186C109.146 174.274 112.11 173.134 113.706 171.766C115.302 170.398 116.1 167.947 116.1 164.413V86.779C116.1 83.131 115.359 80.566 113.877 79.084C112.395 77.602 109.374 76.348 104.814 75.322C103.788 75.094 102.99 74.695 102.42 74.125C101.85 73.441 101.565 72.586 101.565 71.56C101.565 70.762 101.907 70.135 102.591 69.679C103.275 69.223 103.959 68.995 104.643 68.995C107.151 68.995 109.944 69.052 113.022 69.166C116.214 69.28 119.292 69.451 122.256 69.679C125.334 69.793 128.013 69.85 130.293 69.85C132.003 69.85 134.34 69.793 137.304 69.679C140.382 69.451 143.688 69.28 147.222 69.166C150.87 68.938 154.404 68.767 157.824 68.653C161.244 68.425 164.094 68.311 166.374 68.311C174.354 68.311 181.935 69.679 189.117 72.415C196.299 75.037 202.683 78.799 208.269 83.701C213.855 88.603 218.244 94.474 221.436 101.314C224.628 108.04 226.224 115.507 226.224 123.715C226.224 131.239 224.913 138.535 222.291 145.603C219.669 152.557 215.736 158.77 210.492 164.242C205.362 169.714 198.978 174.103 191.34 177.409C183.702 180.601 174.867 182.197 164.835 182.197ZM162.099 172.792C169.623 172.792 175.779 170.968 180.567 167.32C185.469 163.672 189.06 158.542 191.34 151.93C193.734 145.318 194.931 137.566 194.931 128.674C194.931 121.15 194.19 114.31 192.708 108.154C191.34 101.998 189.231 96.697 186.381 92.251C183.531 87.805 179.94 84.385 175.608 81.991C171.276 79.483 166.203 78.229 160.389 78.229C156.969 78.229 154.119 78.343 151.839 78.571C149.673 78.799 148.02 79.312 146.88 80.11C145.74 80.794 145.17 82.048 145.17 83.872V158.086C145.17 161.62 145.74 164.47 146.88 166.636C148.134 168.802 150.015 170.398 152.523 171.424C155.031 172.336 158.223 172.792 162.099 172.792Z" fill="white"/>
<path d="M302.56 183.336C298.764 183.336 294.87 182.557 290.88 181C286.889 179.443 283.531 177.107 280.806 173.992C278.081 170.78 276.718 166.741 276.718 161.874C276.718 156.521 278.665 151.119 282.558 145.668C286.451 140.12 292.048 135.594 299.348 132.09L302.414 130.63L301.392 129.608C300.419 128.537 299.104 127.175 297.45 125.52C295.893 123.768 294.481 121.773 293.216 119.534C292.048 117.198 291.464 114.619 291.464 111.796C291.464 108.389 292.632 105.323 294.968 102.598C297.304 99.7753 300.564 97.5367 304.75 95.882C308.935 94.2273 313.802 93.4 319.35 93.4C323.827 93.4 327.818 94.0813 331.322 95.444C334.923 96.7093 337.746 98.51 339.79 100.846C341.834 103.085 342.856 105.761 342.856 108.876C342.856 113.451 341.444 116.955 338.622 119.388C335.896 121.821 332.149 123.914 327.38 125.666L323.876 126.98L327.088 130.338C329.521 132.771 332.1 135.448 334.826 138.368C337.648 141.288 340.277 143.965 342.71 146.398L345.63 149.318L347.528 147.566C349.377 145.911 350.837 144.208 351.908 142.456C353.076 140.704 353.952 139.049 354.536 137.492C355.12 135.837 355.412 134.426 355.412 133.258C355.412 131.701 354.974 130.581 354.098 129.9C353.222 129.121 352.248 128.537 351.178 128.148C350.302 127.759 349.523 127.418 348.842 127.126C348.258 126.737 347.966 126.104 347.966 125.228C347.966 124.157 348.404 123.525 349.28 123.33C350.156 123.135 351.227 123.038 352.492 123.038C353.952 123.038 355.46 123.135 357.018 123.33C358.575 123.525 360.181 123.719 361.836 123.914C363.588 124.109 365.388 124.206 367.238 124.206C369.379 124.206 371.667 123.914 374.1 123.33C376.533 122.746 378.918 122.211 381.254 121.724C383.59 121.14 385.585 120.848 387.24 120.848C388.018 120.848 388.602 121.091 388.992 121.578C389.478 121.967 389.722 122.405 389.722 122.892C389.722 123.768 389.284 124.644 388.408 125.52C387.532 126.299 386.267 126.834 384.612 127.126C381.4 127.71 378.675 128.829 376.436 130.484C374.197 132.041 372.25 133.647 370.596 135.302C369.233 136.567 367.822 137.833 366.362 139.098C364.999 140.363 363.588 141.629 362.128 142.894C360.765 144.159 359.354 145.425 357.894 146.69C356.434 147.858 354.974 149.075 353.514 150.34C352.054 151.508 350.643 152.725 349.28 153.99L352.054 157.202C355.071 160.803 357.943 163.918 360.668 166.546C363.393 169.077 366.167 170.342 368.99 170.342C370.645 170.342 372.445 170.196 374.392 169.904C376.436 169.515 378.48 168.979 380.524 168.298C381.01 168.103 381.546 167.909 382.13 167.714C382.811 167.422 383.444 167.276 384.028 167.276C384.806 167.276 385.439 167.422 385.926 167.714C386.413 167.909 386.656 168.493 386.656 169.466C386.656 170.926 385.585 172.775 383.444 175.014C381.4 177.155 378.48 179.053 374.684 180.708C370.985 182.363 366.654 183.19 361.69 183.19C357.797 183.19 354.438 182.703 351.616 181.73C348.793 180.854 346.214 179.491 343.878 177.642C341.542 175.793 339.109 173.505 336.578 170.78L333.804 167.714L333.074 168.59C330.251 171.899 327.136 174.673 323.73 176.912C320.42 179.053 316.965 180.659 313.364 181.73C309.762 182.801 306.161 183.336 302.56 183.336ZM314.678 168.59C316.624 168.59 318.863 168.444 321.394 168.152C323.924 167.763 326.26 166.497 328.402 164.356L329.424 163.334L327.088 160.56C323.778 156.667 320.518 152.822 317.306 149.026C314.191 145.23 310.93 141.385 307.524 137.492L305.772 135.448L303.29 137.054C302.024 137.833 300.954 138.903 300.078 140.266C299.299 141.531 298.715 142.943 298.326 144.5C297.937 146.057 297.742 147.761 297.742 149.61C297.742 155.547 299.251 160.219 302.268 163.626C305.383 166.935 309.519 168.59 314.678 168.59ZM320.81 123.184L322.27 121.724C323.34 120.653 324.119 118.999 324.606 116.76C325.19 114.424 325.482 112.088 325.482 109.752C325.579 106.929 325.092 104.447 324.022 102.306C322.951 100.067 321.15 98.948 318.62 98.948C317.062 98.948 315.602 99.6293 314.24 100.992C312.974 102.355 312.342 104.155 312.342 106.394C312.342 109.119 312.682 111.455 313.364 113.402C314.045 115.251 314.824 116.711 315.7 117.782C316.576 118.853 317.257 119.68 317.744 120.264L320.81 123.184Z" fill="white"/>
<path d="M496.604 183.394C488.282 183.394 480.473 182.083 473.177 179.461C465.995 176.725 459.611 172.906 454.025 168.004C448.553 162.988 444.278 157.06 441.2 150.22C438.122 143.266 436.583 135.571 436.583 127.135C436.583 119.383 438.065 111.973 441.029 104.905C443.993 97.723 448.268 91.339 453.854 85.753C459.554 80.167 466.394 75.721 474.374 72.415C482.468 69.109 491.531 67.456 501.563 67.456C503.957 67.456 506.693 67.627 509.771 67.969C512.849 68.311 515.984 68.767 519.176 69.337C522.482 69.907 525.56 70.591 528.41 71.389C531.374 72.073 533.882 72.814 535.934 73.612C536.96 74.068 537.815 74.638 538.499 75.322C539.183 76.006 539.582 76.975 539.696 78.229C540.266 82.333 540.722 86.209 541.064 89.857C541.52 93.391 541.748 96.412 541.748 98.92C541.748 100.06 541.463 100.915 540.893 101.485C540.437 102.055 539.753 102.34 538.841 102.34C537.473 102.34 536.447 102.055 535.763 101.485C535.193 100.801 534.623 99.946 534.053 98.92C533.027 96.64 531.773 94.246 530.291 91.738C528.809 89.116 527.099 86.836 525.161 84.898C523.679 83.416 522.026 82.105 520.202 80.965C518.378 79.711 516.212 78.742 513.704 78.058C511.196 77.26 508.175 76.861 504.641 76.861C498.599 76.861 493.241 78.115 488.567 80.623C484.007 83.017 480.188 86.38 477.11 90.712C474.032 94.93 471.695 99.775 470.099 105.247C468.617 110.605 467.876 116.248 467.876 122.176C467.876 129.814 468.446 136.825 469.586 143.209C470.84 149.479 472.721 154.894 475.229 159.454C477.851 164.014 481.157 167.548 485.147 170.056C489.137 172.45 493.925 173.647 499.511 173.647C501.563 173.647 503.387 173.248 504.983 172.45C506.693 171.538 508.118 170.683 509.258 169.885C510.398 169.087 511.253 167.719 511.823 165.781C512.507 163.843 512.906 161.677 513.02 159.283C513.134 158.257 513.191 156.775 513.191 154.837C513.191 152.785 513.191 150.79 513.191 148.852C513.305 146.8 513.362 145.261 513.362 144.235C513.362 142.981 513.02 141.841 512.336 140.815C511.766 139.675 510.626 138.763 508.916 138.079C507.776 137.623 506.636 137.224 505.496 136.882C504.47 136.426 503.387 136.084 502.247 135.856C501.221 135.514 500.195 135.229 499.169 135.001C498.143 134.773 497.174 134.317 496.262 133.633C495.35 132.949 494.894 132.094 494.894 131.068C494.894 130.27 495.293 129.643 496.091 129.187C496.889 128.731 497.744 128.503 498.656 128.503C501.164 128.503 504.071 128.56 507.377 128.674C510.797 128.788 514.16 128.959 517.466 129.187C520.772 129.301 523.565 129.358 525.845 129.358C529.151 129.358 532.799 129.244 536.789 129.016C540.893 128.788 544.712 128.674 548.246 128.674C549.158 128.674 549.842 128.902 550.298 129.358C550.754 129.7 550.982 130.327 550.982 131.239C550.982 132.379 550.697 133.234 550.127 133.804C549.557 134.26 548.759 134.602 547.733 134.83C544.313 135.742 541.976 136.825 540.722 138.079C539.582 139.219 538.784 140.929 538.328 143.209C537.872 145.717 537.53 147.94 537.302 149.878C537.188 151.702 537.131 153.754 537.131 156.034V161.848C537.131 162.418 537.359 162.988 537.815 163.558C538.385 164.128 538.955 164.698 539.525 165.268C540.095 165.838 540.494 166.465 540.722 167.149C541.064 167.719 541.235 168.346 541.235 169.03C541.235 169.828 540.95 170.626 540.38 171.424C539.81 172.108 538.898 172.564 537.644 172.792C536.732 172.906 535.136 173.533 532.856 174.673C530.69 175.699 527.897 176.896 524.477 178.264C521.057 179.632 517.01 180.829 512.336 181.855C507.662 182.881 502.418 183.394 496.604 183.394Z" fill="white"/>
<path d="M41 218H614V269H41V218Z" fill="#118C4F"/>
<path d="M148.331 257.135C148.151 257.135 147.971 257.075 147.791 256.955C147.611 256.835 147.521 256.67 147.521 256.46C147.521 255.95 147.806 255.62 148.376 255.47C149.396 255.23 150.101 254.93 150.491 254.57C150.881 254.21 151.076 253.565 151.076 252.635V232.205C151.076 231.245 150.881 230.57 150.491 230.18C150.131 229.79 149.426 229.46 148.376 229.19C147.806 229.04 147.521 228.71 147.521 228.2C147.521 227.99 147.611 227.825 147.791 227.705C147.971 227.585 148.151 227.525 148.331 227.525C148.991 227.525 149.711 227.54 150.491 227.57C151.271 227.6 152.036 227.645 152.786 227.705C153.536 227.735 154.211 227.75 154.811 227.75C155.411 227.75 156.131 227.735 156.971 227.705C157.811 227.675 158.666 227.645 159.536 227.615C160.406 227.585 161.156 227.57 161.786 227.57C162.266 227.57 162.506 227.795 162.506 228.245C162.506 228.545 162.431 228.755 162.281 228.875C162.131 228.995 161.921 229.1 161.651 229.19C160.421 229.55 159.626 229.925 159.266 230.315C158.906 230.705 158.726 231.35 158.726 232.25V240.215C158.726 240.455 158.786 240.635 158.906 240.755C159.056 240.845 159.236 240.89 159.446 240.89H170.291C170.711 240.89 170.921 240.665 170.921 240.215V232.25C170.921 231.35 170.741 230.705 170.381 230.315C170.021 229.925 169.226 229.55 167.996 229.19C167.726 229.1 167.516 228.995 167.366 228.875C167.216 228.755 167.141 228.545 167.141 228.245C167.141 227.795 167.381 227.57 167.861 227.57C168.491 227.57 169.241 227.585 170.111 227.615C170.981 227.645 171.836 227.675 172.676 227.705C173.546 227.735 174.266 227.75 174.836 227.75C175.436 227.75 176.111 227.735 176.861 227.705C177.611 227.645 178.376 227.6 179.156 227.57C179.936 227.54 180.656 227.525 181.316 227.525C181.496 227.525 181.676 227.585 181.856 227.705C182.036 227.825 182.126 227.99 182.126 228.2C182.126 228.71 181.841 229.04 181.271 229.19C180.221 229.46 179.501 229.79 179.111 230.18C178.751 230.57 178.571 231.245 178.571 232.205V252.635C178.571 253.565 178.766 254.21 179.156 254.57C179.546 254.93 180.251 255.23 181.271 255.47C181.841 255.62 182.126 255.95 182.126 256.46C182.126 256.67 182.036 256.835 181.856 256.955C181.676 257.075 181.496 257.135 181.316 257.135C180.746 257.135 180.071 257.105 179.291 257.045C178.511 257.015 177.716 256.985 176.906 256.955C176.126 256.925 175.436 256.91 174.836 256.91C174.266 256.91 173.546 256.925 172.676 256.955C171.836 256.985 170.981 257.015 170.111 257.045C169.241 257.075 168.491 257.09 167.861 257.09C167.651 257.09 167.471 257.03 167.321 256.91C167.201 256.79 167.141 256.625 167.141 256.415C167.141 256.115 167.216 255.905 167.366 255.785C167.516 255.665 167.726 255.56 167.996 255.47C169.166 255.14 169.946 254.795 170.336 254.435C170.726 254.045 170.921 253.43 170.921 252.59V244.22C170.921 243.98 170.876 243.8 170.786 243.68C170.696 243.53 170.531 243.455 170.291 243.455H159.446C158.966 243.455 158.726 243.71 158.726 244.22V252.59C158.726 253.43 158.921 254.045 159.311 254.435C159.701 254.795 160.481 255.14 161.651 255.47C161.921 255.56 162.131 255.665 162.281 255.785C162.431 255.905 162.506 256.115 162.506 256.415C162.506 256.625 162.446 256.79 162.326 256.91C162.206 257.03 162.026 257.09 161.786 257.09C161.156 257.09 160.406 257.075 159.536 257.045C158.666 257.015 157.811 256.985 156.971 256.955C156.131 256.925 155.411 256.91 154.811 256.91C154.211 256.91 153.506 256.925 152.696 256.955C151.916 256.985 151.136 257.015 150.356 257.045C149.576 257.105 148.901 257.135 148.331 257.135Z" fill="white"/>
<path d="M199.669 257.63C197.569 257.63 195.574 257.285 193.684 256.595C191.794 255.875 190.114 254.87 188.644 253.58C187.174 252.26 186.018 250.7 185.178 248.9C184.338 247.07 183.919 245.045 183.919 242.825C183.919 240.785 184.264 238.835 184.954 236.975C185.644 235.085 186.664 233.405 188.014 231.935C189.394 230.465 191.089 229.295 193.099 228.425C195.109 227.555 197.434 227.12 200.074 227.12C202.174 227.12 204.169 227.48 206.059 228.2C207.949 228.89 209.629 229.895 211.099 231.215C212.569 232.505 213.724 234.065 214.564 235.895C215.404 237.695 215.824 239.705 215.824 241.925C215.824 243.935 215.479 245.885 214.788 247.775C214.098 249.665 213.063 251.345 211.684 252.815C210.333 254.285 208.654 255.455 206.644 256.325C204.634 257.195 202.309 257.63 199.669 257.63ZM200.479 255.515C202.069 255.515 203.389 255.035 204.439 254.075C205.519 253.115 206.328 251.795 206.868 250.115C207.409 248.405 207.678 246.455 207.678 244.265C207.678 242.465 207.514 240.68 207.184 238.91C206.854 237.14 206.344 235.535 205.654 234.095C204.964 232.625 204.079 231.455 202.999 230.585C201.949 229.715 200.674 229.28 199.174 229.28C197.614 229.28 196.293 229.76 195.214 230.72C194.164 231.68 193.369 233 192.829 234.68C192.319 236.36 192.064 238.295 192.064 240.485C192.064 242.285 192.229 244.07 192.559 245.84C192.889 247.61 193.384 249.23 194.044 250.7C194.734 252.14 195.604 253.31 196.654 254.21C197.734 255.08 199.008 255.515 200.479 255.515Z" fill="white"/>
<path d="M218.874 257.135C218.514 257.135 218.244 257.075 218.064 256.955C217.914 256.835 217.839 256.67 217.839 256.46C217.839 256.19 217.974 256.025 218.244 255.965C218.514 255.875 218.784 255.77 219.054 255.65C219.744 255.38 220.344 254.945 220.854 254.345C221.394 253.745 221.724 252.995 221.844 252.095C221.994 250.985 222.159 249.47 222.339 247.55C222.519 245.6 222.714 243.44 222.924 241.07C223.134 238.67 223.344 236.24 223.554 233.78C223.584 233.63 223.599 233.42 223.599 233.15C223.599 232.88 223.599 232.58 223.599 232.25C223.599 231.65 223.494 231.185 223.284 230.855C223.104 230.525 222.819 230.255 222.429 230.045C222.099 229.865 221.739 229.7 221.349 229.55C220.959 229.37 220.539 229.22 220.089 229.1C219.729 229.01 219.429 228.89 219.189 228.74C218.979 228.59 218.874 228.38 218.874 228.11C218.874 227.84 218.979 227.66 219.189 227.57C219.429 227.45 219.714 227.39 220.044 227.39C220.524 227.39 221.094 227.405 221.754 227.435C222.444 227.465 223.194 227.495 224.004 227.525C224.814 227.525 225.639 227.54 226.479 227.57C227.349 227.6 228.189 227.615 228.999 227.615C229.239 227.615 229.464 227.705 229.674 227.885C229.884 228.065 230.019 228.245 230.079 228.425C230.319 229.025 230.529 229.58 230.709 230.09C230.889 230.57 231.099 231.11 231.339 231.71L237.819 246.965C237.879 247.085 237.939 247.145 237.999 247.145C238.089 247.145 238.149 247.085 238.179 246.965L244.074 232.79C244.314 231.62 244.494 230.705 244.614 230.045C244.764 229.355 244.899 228.83 245.019 228.47C245.139 228.08 245.394 227.885 245.784 227.885H247.809C249.129 227.825 250.509 227.735 251.949 227.615C253.419 227.465 254.574 227.39 255.414 227.39C255.744 227.39 256.014 227.45 256.224 227.57C256.464 227.66 256.584 227.84 256.584 228.11C256.584 228.38 256.479 228.575 256.269 228.695C256.059 228.815 255.819 228.92 255.549 229.01C255.429 229.04 255.264 229.1 255.054 229.19C254.874 229.28 254.724 229.355 254.604 229.415C253.704 229.835 253.044 230.3 252.624 230.81C252.234 231.32 252.069 232.145 252.129 233.285C252.219 235.475 252.309 237.35 252.399 238.91C252.489 240.47 252.564 241.91 252.624 243.23C252.714 244.55 252.804 245.945 252.894 247.415C253.014 248.855 253.134 250.58 253.254 252.59C253.314 253.34 253.644 253.955 254.244 254.435C254.844 254.885 255.594 255.23 256.494 255.47C256.764 255.56 256.989 255.665 257.169 255.785C257.379 255.905 257.484 256.115 257.484 256.415C257.484 256.625 257.394 256.79 257.214 256.91C257.064 257.03 256.869 257.09 256.629 257.09C255.999 257.09 255.219 257.075 254.289 257.045C253.389 257.015 252.489 256.985 251.589 256.955C250.689 256.925 249.939 256.91 249.339 256.91C248.739 256.91 248.034 256.925 247.224 256.955C246.444 256.985 245.634 257.015 244.794 257.045C243.984 257.105 243.249 257.135 242.589 257.135C242.349 257.135 242.124 257.075 241.914 256.955C241.734 256.835 241.644 256.67 241.644 256.46C241.644 256.19 241.734 255.98 241.914 255.83C242.124 255.65 242.364 255.53 242.634 255.47C243.774 255.23 244.569 254.93 245.019 254.57C245.469 254.18 245.664 253.535 245.604 252.635C245.514 250.835 245.439 249.005 245.379 247.145C245.319 245.285 245.259 243.455 245.199 241.655C245.169 239.825 245.109 238.1 245.019 236.48C245.019 236.3 244.974 236.225 244.884 236.255C244.794 236.255 244.704 236.36 244.614 236.57L236.424 256.865C236.244 257.345 235.989 257.54 235.659 257.45C235.359 257.36 235.149 257.195 235.029 256.955C233.469 253.475 231.864 250.04 230.214 246.65C228.564 243.26 227.094 239.975 225.804 236.795C225.684 236.495 225.519 236.39 225.309 236.48C225.129 236.57 225.024 236.81 224.994 237.2C224.934 238.55 224.889 240.125 224.859 241.925C224.859 243.725 224.874 245.54 224.904 247.37C224.934 249.2 224.949 250.85 224.949 252.32C224.949 253.16 225.219 253.82 225.759 254.3C226.299 254.78 227.169 255.17 228.369 255.47C228.639 255.53 228.909 255.635 229.179 255.785C229.449 255.905 229.584 256.115 229.584 256.415C229.584 256.625 229.464 256.79 229.224 256.91C228.984 257.03 228.744 257.09 228.504 257.09C227.694 257.09 227.064 257.075 226.614 257.045C226.164 257.015 225.744 257 225.354 257C224.994 256.97 224.499 256.955 223.869 256.955C223.179 256.955 222.444 256.97 221.664 257C220.884 257.03 220.224 257.06 219.684 257.09C219.144 257.12 218.874 257.135 218.874 257.135Z" fill="white"/>
<path d="M259.954 257.225C259.684 257.225 259.474 257.15 259.324 257C259.174 256.85 259.099 256.685 259.099 256.505C259.099 256.055 259.399 255.74 259.999 255.56C260.989 255.26 261.679 254.945 262.069 254.615C262.489 254.285 262.699 253.655 262.699 252.725V232.205C262.699 231.245 262.504 230.57 262.114 230.18C261.754 229.76 261.049 229.43 259.999 229.19C259.639 229.1 259.384 228.965 259.234 228.785C259.114 228.605 259.054 228.425 259.054 228.245C259.054 228.035 259.129 227.87 259.279 227.75C259.459 227.6 259.684 227.525 259.954 227.525C260.614 227.525 261.334 227.54 262.114 227.57C262.894 227.6 263.659 227.645 264.409 227.705C265.159 227.735 265.834 227.75 266.434 227.75C268.114 227.75 269.914 227.735 271.834 227.705C273.754 227.675 275.449 227.645 276.919 227.615C277.879 227.615 278.659 227.555 279.259 227.435C279.889 227.315 280.264 227.255 280.384 227.255C280.624 227.255 280.864 227.33 281.104 227.48C281.374 227.6 281.524 227.84 281.554 228.2C281.674 229.31 281.824 230.405 282.004 231.485C282.214 232.535 282.319 233.465 282.319 234.275C282.319 234.575 282.259 234.8 282.139 234.95C282.019 235.1 281.884 235.175 281.734 235.175C281.584 235.175 281.419 235.115 281.239 234.995C281.059 234.875 280.909 234.68 280.789 234.41C280.459 233.6 280.159 232.925 279.889 232.385C279.649 231.815 279.364 231.365 279.034 231.035C278.704 230.705 278.284 230.39 277.774 230.09C277.264 229.76 276.589 229.595 275.749 229.595H272.914C272.164 229.595 271.549 229.775 271.069 230.135C270.589 230.495 270.349 231.005 270.349 231.665V239.945C270.349 240.335 270.454 240.62 270.664 240.8C270.874 240.95 271.159 241.025 271.519 241.025H275.344C276.124 241.025 276.679 240.74 277.009 240.17C277.369 239.6 277.684 238.955 277.954 238.235C278.194 237.695 278.509 237.425 278.899 237.425C279.049 237.425 279.184 237.515 279.304 237.695C279.424 237.875 279.469 238.13 279.439 238.46C279.409 238.88 279.364 239.3 279.304 239.72C279.274 240.14 279.244 240.56 279.214 240.98C279.214 241.37 279.214 241.775 279.214 242.195C279.214 242.585 279.214 242.99 279.214 243.41C279.244 243.8 279.274 244.205 279.304 244.625C279.334 245.045 279.364 245.48 279.394 245.93C279.454 246.38 279.424 246.71 279.304 246.92C279.214 247.1 279.094 247.19 278.944 247.19C278.434 247.19 278.074 246.83 277.864 246.11C277.594 245.15 277.279 244.415 276.919 243.905C276.589 243.395 276.139 243.14 275.569 243.14H271.339C271.009 243.14 270.754 243.23 270.574 243.41C270.424 243.59 270.349 243.845 270.349 244.175V252.68C270.349 253.52 270.529 254.12 270.889 254.48C271.249 254.81 271.804 254.975 272.554 254.975H276.559C277.159 254.975 277.744 254.9 278.314 254.75C278.914 254.57 279.424 254.3 279.844 253.94C280.354 253.52 280.819 252.98 281.239 252.32C281.689 251.66 282.079 251 282.409 250.34C282.529 250.1 282.649 249.95 282.769 249.89C282.919 249.83 283.084 249.8 283.264 249.8C283.444 249.8 283.564 249.905 283.624 250.115C283.684 250.295 283.714 250.49 283.714 250.7C283.714 251.24 283.639 251.825 283.489 252.455C283.339 253.085 283.144 253.76 282.904 254.48C282.694 255.17 282.484 255.89 282.274 256.64C282.214 256.85 282.079 256.985 281.869 257.045C281.659 257.135 281.434 257.18 281.194 257.18C281.044 257.18 280.459 257.165 279.439 257.135C278.419 257.135 277.144 257.12 275.614 257.09C274.114 257.06 272.539 257.03 270.889 257C269.269 257 267.784 257 266.434 257C265.834 257 265.144 257.015 264.364 257.045C263.584 257.075 262.804 257.105 262.024 257.135C261.244 257.195 260.554 257.225 259.954 257.225Z" fill="white"/>
<path d="M285.926 257.225C285.656 257.225 285.446 257.15 285.296 257C285.146 256.85 285.071 256.685 285.071 256.505C285.071 256.055 285.371 255.74 285.971 255.56C286.961 255.26 287.651 254.945 288.041 254.615C288.461 254.285 288.671 253.655 288.671 252.725V232.205C288.671 231.245 288.476 230.57 288.086 230.18C287.726 229.76 287.021 229.43 285.971 229.19C285.611 229.1 285.356 228.965 285.206 228.785C285.086 228.605 285.026 228.425 285.026 228.245C285.026 228.035 285.101 227.87 285.251 227.75C285.431 227.6 285.656 227.525 285.926 227.525C286.916 227.525 287.741 227.555 288.401 227.615C289.061 227.675 289.691 227.735 290.291 227.795C290.891 227.855 291.581 227.885 292.361 227.885C293.081 227.885 293.741 227.855 294.341 227.795C294.941 227.705 295.601 227.63 296.321 227.57C297.071 227.48 297.986 227.435 299.066 227.435C302.636 227.435 305.351 227.945 307.211 228.965C309.101 229.955 310.046 231.68 310.046 234.14C310.046 235.04 309.821 235.91 309.371 236.75C308.951 237.59 308.366 238.31 307.616 238.91C307.136 239.3 306.611 239.645 306.041 239.945C305.501 240.215 304.916 240.425 304.286 240.575C304.166 240.605 304.106 240.68 304.106 240.8C304.106 240.92 304.166 240.995 304.286 241.025C305.096 241.175 305.921 241.4 306.761 241.7C307.631 241.97 308.441 242.375 309.191 242.915C309.941 243.455 310.541 244.16 310.991 245.03C311.441 245.87 311.666 246.95 311.666 248.27C311.666 249.95 311.396 251.285 310.856 252.275C310.346 253.265 309.716 254.015 308.966 254.525C308.216 255.035 307.526 255.455 306.896 255.785C305.906 256.265 304.781 256.625 303.521 256.865C302.261 257.075 300.761 257.18 299.021 257.18C297.881 257.18 296.786 257.15 295.736 257.09C294.686 257.03 293.576 257 292.406 257C291.806 257 291.101 257.015 290.291 257.045C289.511 257.075 288.731 257.105 287.951 257.135C287.201 257.195 286.526 257.225 285.926 257.225ZM298.886 254.57C299.726 254.57 300.491 254.315 301.181 253.805C301.901 253.265 302.471 252.545 302.891 251.645C303.311 250.745 303.521 249.74 303.521 248.63C303.521 247.61 303.401 246.77 303.161 246.11C302.951 245.45 302.681 244.925 302.351 244.535C302.051 244.115 301.766 243.8 301.496 243.59C301.286 243.38 300.896 243.17 300.326 242.96C299.786 242.72 299.111 242.6 298.301 242.6C297.911 242.6 297.476 242.72 296.996 242.96C296.546 243.17 296.321 243.53 296.321 244.04V251.78C296.321 252.68 296.546 253.37 296.996 253.85C297.446 254.33 298.076 254.57 298.886 254.57ZM298.076 240.44C298.766 240.44 299.381 240.365 299.921 240.215C300.461 240.035 301.001 239.705 301.541 239.225C301.751 239.015 302.021 238.595 302.351 237.965C302.681 237.305 302.846 236.375 302.846 235.175C302.846 233.825 302.681 232.745 302.351 231.935C302.051 231.095 301.586 230.495 300.956 230.135C300.326 229.745 299.546 229.55 298.616 229.55C297.866 229.55 297.296 229.715 296.906 230.045C296.516 230.345 296.321 230.81 296.321 231.44V238.865C296.321 239.405 296.516 239.81 296.906 240.08C297.326 240.32 297.716 240.44 298.076 240.44Z" fill="white"/>
<path d="M329.701 257.63C326.851 257.63 324.466 257.12 322.546 256.1C320.656 255.08 319.231 253.67 318.271 251.87C317.311 250.04 316.831 247.91 316.831 245.48V232.88C316.831 232.1 316.636 231.35 316.246 230.63C315.886 229.88 315.301 229.4 314.491 229.19C313.681 228.98 313.276 228.65 313.276 228.2C313.276 227.99 313.381 227.825 313.591 227.705C313.831 227.585 314.116 227.525 314.446 227.525C315.436 227.525 316.486 227.57 317.596 227.66C318.706 227.72 319.711 227.75 320.611 227.75C321.481 227.75 322.561 227.72 323.851 227.66C325.171 227.6 326.296 227.57 327.226 227.57C327.586 227.57 327.871 227.63 328.081 227.75C328.291 227.84 328.396 228.005 328.396 228.245C328.396 228.605 328.141 228.875 327.631 229.055C327.151 229.205 326.671 229.4 326.191 229.64C325.711 229.85 325.306 230.24 324.976 230.81C324.676 231.35 324.526 232.13 324.526 233.15V244.76C324.526 246.74 324.841 248.375 325.471 249.665C326.101 250.925 326.926 251.855 327.946 252.455C328.996 253.055 330.136 253.355 331.366 253.355C334.006 253.355 335.986 252.605 337.306 251.105C338.626 249.575 339.286 247.175 339.286 243.905C339.286 243.095 339.286 242.21 339.286 241.25C339.316 240.29 339.331 239.315 339.331 238.325C339.361 237.335 339.361 236.405 339.331 235.535C339.301 234.065 339.196 232.955 339.016 232.205C338.836 231.425 338.566 230.84 338.206 230.45C337.876 230.03 337.411 229.67 336.811 229.37C336.481 229.19 336.091 229.04 335.641 228.92C335.191 228.77 334.966 228.545 334.966 228.245C334.966 228.005 335.086 227.84 335.326 227.75C335.566 227.63 335.896 227.57 336.316 227.57C337.486 227.57 338.356 227.6 338.926 227.66C339.496 227.69 340.141 227.705 340.861 227.705C341.431 227.705 341.896 227.69 342.256 227.66C342.646 227.63 343.036 227.6 343.426 227.57C343.846 227.54 344.371 227.525 345.001 227.525C345.331 227.525 345.601 227.57 345.811 227.66C346.021 227.75 346.126 227.93 346.126 228.2C346.126 228.62 345.736 228.95 344.956 229.19C343.906 229.49 343.171 229.97 342.751 230.63C342.361 231.26 342.136 232.145 342.076 233.285C341.986 235.475 341.926 237.5 341.896 239.36C341.866 241.22 341.851 243.125 341.851 245.075C341.851 247.535 341.311 249.71 340.231 251.6C339.151 253.49 337.681 254.975 335.821 256.055C333.991 257.105 331.951 257.63 329.701 257.63Z" fill="white"/>
<path d="M347.975 257.135C347.795 257.135 347.615 257.075 347.435 256.955C347.255 256.835 347.165 256.67 347.165 256.46C347.165 255.95 347.45 255.62 348.02 255.47C349.16 255.23 349.94 254.93 350.36 254.57C350.78 254.21 350.99 253.565 350.99 252.635V232.205C350.99 231.245 350.795 230.57 350.405 230.18C350.015 229.79 349.22 229.46 348.02 229.19C347.45 229.04 347.165 228.71 347.165 228.2C347.165 227.99 347.255 227.825 347.435 227.705C347.615 227.585 347.795 227.525 347.975 227.525C348.635 227.525 349.37 227.54 350.18 227.57C351.02 227.6 351.83 227.645 352.61 227.705C353.42 227.735 354.125 227.75 354.725 227.75C355.325 227.75 356.045 227.735 356.885 227.705C357.725 227.675 358.58 227.645 359.45 227.615C360.32 227.585 361.07 227.57 361.7 227.57C361.94 227.57 362.12 227.63 362.24 227.75C362.36 227.84 362.42 228.005 362.42 228.245C362.42 228.545 362.345 228.755 362.195 228.875C362.045 228.995 361.835 229.1 361.565 229.19C360.335 229.55 359.54 229.925 359.18 230.315C358.82 230.705 358.64 231.35 358.64 232.25V252.59C358.64 253.43 358.835 254.045 359.225 254.435C359.615 254.795 360.395 255.14 361.565 255.47C361.835 255.56 362.045 255.665 362.195 255.785C362.345 255.905 362.42 256.115 362.42 256.415C362.42 256.625 362.36 256.79 362.24 256.91C362.12 257.03 361.94 257.09 361.7 257.09C361.07 257.09 360.32 257.075 359.45 257.045C358.58 257.015 357.725 256.985 356.885 256.955C356.045 256.925 355.325 256.91 354.725 256.91C354.125 256.91 353.42 256.925 352.61 256.955C351.83 256.985 351.02 257.015 350.18 257.045C349.37 257.105 348.635 257.135 347.975 257.135Z" fill="white"/>
<path d="M364.856 257.225C364.586 257.225 364.376 257.15 364.226 257C364.076 256.85 364.001 256.685 364.001 256.505C364.001 256.325 364.076 256.145 364.226 255.965C364.376 255.785 364.601 255.65 364.901 255.56C365.891 255.26 366.581 254.945 366.971 254.615C367.391 254.285 367.601 253.655 367.601 252.725V232.205C367.601 231.545 367.511 231.035 367.331 230.675C367.181 230.315 366.896 230.03 366.476 229.82C366.056 229.58 365.441 229.37 364.631 229.19C364.061 229.04 363.776 228.71 363.776 228.2C363.776 227.99 363.866 227.825 364.046 227.705C364.226 227.585 364.406 227.525 364.586 227.525C365.246 227.525 365.981 227.54 366.791 227.57C367.631 227.6 368.441 227.645 369.221 227.705C370.031 227.735 370.736 227.75 371.336 227.75C371.936 227.75 372.656 227.735 373.496 227.705C374.336 227.675 375.191 227.645 376.061 227.615C376.931 227.585 377.681 227.57 378.311 227.57C378.551 227.57 378.731 227.63 378.851 227.75C378.971 227.84 379.031 228.005 379.031 228.245C379.031 228.545 378.956 228.755 378.806 228.875C378.656 228.995 378.446 229.1 378.176 229.19C376.946 229.55 376.151 229.925 375.791 230.315C375.431 230.705 375.251 231.35 375.251 232.25V252.275C375.251 253.115 375.431 253.715 375.791 254.075C376.151 254.405 376.706 254.57 377.456 254.57H381.821C382.451 254.57 383.021 254.465 383.531 254.255C384.041 254.015 384.506 253.7 384.926 253.31C385.436 252.83 385.886 252.275 386.276 251.645C386.696 250.985 387.056 250.325 387.356 249.665C387.686 248.975 387.926 248.57 388.076 248.45C388.256 248.3 388.436 248.225 388.616 248.225C388.856 248.225 389.021 248.33 389.111 248.54C389.201 248.75 389.246 248.96 389.246 249.17C389.246 249.23 389.216 249.38 389.156 249.62C389.096 249.86 389.066 250.055 389.066 250.205C388.826 251.105 388.616 251.885 388.436 252.545C388.256 253.175 388.106 253.79 387.986 254.39C387.896 254.96 387.806 255.62 387.716 256.37C387.686 256.58 387.611 256.775 387.491 256.955C387.401 257.135 387.221 257.225 386.951 257.225C386.531 257.225 385.736 257.21 384.566 257.18C383.426 257.15 382.091 257.12 380.561 257.09C379.031 257.09 377.441 257.075 375.791 257.045C374.171 257.015 372.686 257 371.336 257C370.736 257 370.046 257.015 369.266 257.045C368.486 257.075 367.706 257.105 366.926 257.135C366.146 257.195 365.456 257.225 364.856 257.225Z" fill="white"/>
<path d="M406.793 257.315C405.593 257.315 404.363 257.285 403.103 257.225C401.873 257.165 400.763 257.105 399.773 257.045C398.783 257.015 398.093 257 397.703 257C397.103 257 396.398 257 395.588 257C394.808 257.03 393.998 257.06 393.158 257.09C392.348 257.12 391.613 257.135 390.953 257.135C390.773 257.135 390.593 257.075 390.413 256.955C390.233 256.835 390.143 256.67 390.143 256.46C390.143 256.19 390.218 255.98 390.368 255.83C390.518 255.65 390.728 255.53 390.998 255.47C392.138 255.23 392.918 254.93 393.338 254.57C393.758 254.21 393.968 253.565 393.968 252.635V232.205C393.968 231.245 393.773 230.57 393.383 230.18C392.993 229.79 392.198 229.46 390.998 229.19C390.728 229.13 390.518 229.025 390.368 228.875C390.218 228.695 390.143 228.47 390.143 228.2C390.143 227.99 390.233 227.825 390.413 227.705C390.593 227.585 390.773 227.525 390.953 227.525C391.613 227.525 392.348 227.54 393.158 227.57C393.998 227.6 394.808 227.645 395.588 227.705C396.398 227.735 397.103 227.75 397.703 227.75C398.153 227.75 398.768 227.735 399.548 227.705C400.358 227.645 401.228 227.6 402.158 227.57C403.118 227.51 404.048 227.465 404.948 227.435C405.848 227.375 406.598 227.345 407.198 227.345C409.298 227.345 411.293 227.705 413.183 228.425C415.073 229.115 416.753 230.105 418.223 231.395C419.693 232.685 420.848 234.23 421.688 236.03C422.528 237.8 422.948 239.765 422.948 241.925C422.948 243.905 422.603 245.825 421.913 247.685C421.223 249.515 420.188 251.15 418.808 252.59C417.458 254.03 415.778 255.185 413.768 256.055C411.758 256.895 409.433 257.315 406.793 257.315ZM406.073 254.84C408.053 254.84 409.673 254.36 410.933 253.4C412.223 252.44 413.168 251.09 413.768 249.35C414.398 247.61 414.713 245.57 414.713 243.23C414.713 241.25 414.518 239.45 414.128 237.83C413.768 236.21 413.213 234.815 412.463 233.645C411.713 232.475 410.768 231.575 409.628 230.945C408.488 230.285 407.153 229.955 405.623 229.955C404.723 229.955 403.973 229.985 403.373 230.045C402.803 230.105 402.368 230.24 402.068 230.45C401.768 230.63 401.618 230.96 401.618 231.44V250.97C401.618 251.9 401.768 252.65 402.068 253.22C402.398 253.79 402.893 254.21 403.553 254.48C404.213 254.72 405.053 254.84 406.073 254.84Z" fill="white"/>
<path d="M425.628 257.225C425.358 257.225 425.148 257.15 424.998 257C424.848 256.85 424.773 256.685 424.773 256.505C424.773 256.055 425.073 255.74 425.673 255.56C426.663 255.26 427.353 254.945 427.743 254.615C428.163 254.285 428.373 253.655 428.373 252.725V232.205C428.373 231.245 428.178 230.57 427.788 230.18C427.428 229.76 426.723 229.43 425.673 229.19C425.313 229.1 425.058 228.965 424.908 228.785C424.788 228.605 424.728 228.425 424.728 228.245C424.728 228.035 424.803 227.87 424.953 227.75C425.133 227.6 425.358 227.525 425.628 227.525C426.288 227.525 427.008 227.54 427.788 227.57C428.568 227.6 429.333 227.645 430.083 227.705C430.833 227.735 431.508 227.75 432.108 227.75C433.788 227.75 435.588 227.735 437.508 227.705C439.428 227.675 441.123 227.645 442.593 227.615C443.553 227.615 444.333 227.555 444.933 227.435C445.563 227.315 445.938 227.255 446.058 227.255C446.298 227.255 446.538 227.33 446.778 227.48C447.048 227.6 447.198 227.84 447.228 228.2C447.348 229.31 447.498 230.405 447.678 231.485C447.888 232.535 447.993 233.465 447.993 234.275C447.993 234.575 447.933 234.8 447.813 234.95C447.693 235.1 447.558 235.175 447.408 235.175C447.258 235.175 447.093 235.115 446.913 234.995C446.733 234.875 446.583 234.68 446.463 234.41C446.133 233.6 445.833 232.925 445.563 232.385C445.323 231.815 445.038 231.365 444.708 231.035C444.378 230.705 443.958 230.39 443.448 230.09C442.938 229.76 442.263 229.595 441.423 229.595H438.588C437.838 229.595 437.223 229.775 436.743 230.135C436.263 230.495 436.023 231.005 436.023 231.665V239.945C436.023 240.335 436.128 240.62 436.338 240.8C436.548 240.95 436.833 241.025 437.193 241.025H441.018C441.798 241.025 442.353 240.74 442.683 240.17C443.043 239.6 443.358 238.955 443.628 238.235C443.868 237.695 444.183 237.425 444.573 237.425C444.723 237.425 444.858 237.515 444.978 237.695C445.098 237.875 445.143 238.13 445.113 238.46C445.083 238.88 445.038 239.3 444.978 239.72C444.948 240.14 444.918 240.56 444.888 240.98C444.888 241.37 444.888 241.775 444.888 242.195C444.888 242.585 444.888 242.99 444.888 243.41C444.918 243.8 444.948 244.205 444.978 244.625C445.008 245.045 445.038 245.48 445.068 245.93C445.128 246.38 445.098 246.71 444.978 246.92C444.888 247.1 444.768 247.19 444.618 247.19C444.108 247.19 443.748 246.83 443.538 246.11C443.268 245.15 442.953 244.415 442.593 243.905C442.263 243.395 441.813 243.14 441.243 243.14H437.013C436.683 243.14 436.428 243.23 436.248 243.41C436.098 243.59 436.023 243.845 436.023 244.175V252.68C436.023 253.52 436.203 254.12 436.563 254.48C436.923 254.81 437.478 254.975 438.228 254.975H442.233C442.833 254.975 443.418 254.9 443.988 254.75C444.588 254.57 445.098 254.3 445.518 253.94C446.028 253.52 446.493 252.98 446.913 252.32C447.363 251.66 447.753 251 448.083 250.34C448.203 250.1 448.323 249.95 448.443 249.89C448.593 249.83 448.758 249.8 448.938 249.8C449.118 249.8 449.238 249.905 449.298 250.115C449.358 250.295 449.388 250.49 449.388 250.7C449.388 251.24 449.313 251.825 449.163 252.455C449.013 253.085 448.818 253.76 448.578 254.48C448.368 255.17 448.158 255.89 447.948 256.64C447.888 256.85 447.753 256.985 447.543 257.045C447.333 257.135 447.108 257.18 446.868 257.18C446.718 257.18 446.133 257.165 445.113 257.135C444.093 257.135 442.818 257.12 441.288 257.09C439.788 257.06 438.213 257.03 436.563 257C434.943 257 433.458 257 432.108 257C431.508 257 430.818 257.015 430.038 257.045C429.258 257.075 428.478 257.105 427.698 257.135C426.918 257.195 426.228 257.225 425.628 257.225Z" fill="white"/>
<path d="M479.14 257.945C477.46 257.945 476.05 257.735 474.91 257.315C473.8 256.895 472.87 256.355 472.12 255.695C471.37 255.005 470.695 254.255 470.095 253.445C469.465 252.575 468.85 251.705 468.25 250.835C467.65 249.935 467.065 248.99 466.495 248C465.925 246.98 465.355 245.855 464.785 244.625C464.485 243.965 464.125 243.515 463.705 243.275C463.525 243.155 463.33 243.08 463.12 243.05C462.94 242.99 462.775 242.96 462.625 242.96C462.475 242.96 462.355 243.05 462.265 243.23C462.205 243.38 462.175 243.59 462.175 243.86V252.59C462.175 253.52 462.43 254.165 462.94 254.525C463.48 254.885 464.395 255.2 465.685 255.47C465.955 255.53 466.165 255.635 466.315 255.785C466.465 255.905 466.54 256.115 466.54 256.415C466.54 256.625 466.48 256.79 466.36 256.91C466.24 257.03 466.06 257.09 465.82 257.09C465.19 257.09 464.395 257.075 463.435 257.045C462.475 257.015 461.515 256.985 460.555 256.955C459.625 256.925 458.86 256.91 458.26 256.91C457.66 256.91 456.955 256.925 456.145 256.955C455.365 256.985 454.555 257.015 453.715 257.045C452.905 257.105 452.17 257.135 451.51 257.135C451.33 257.135 451.15 257.075 450.97 256.955C450.79 256.835 450.7 256.67 450.7 256.46C450.7 255.95 450.985 255.62 451.555 255.47C452.695 255.23 453.475 254.93 453.895 254.57C454.315 254.21 454.525 253.565 454.525 252.635V232.205C454.525 231.545 454.45 231.035 454.3 230.675C454.15 230.285 453.88 229.985 453.49 229.775C453.1 229.535 452.545 229.34 451.825 229.19C451.465 229.1 451.21 228.965 451.06 228.785C450.94 228.605 450.88 228.425 450.88 228.245C450.88 228.035 450.955 227.87 451.105 227.75C451.285 227.6 451.51 227.525 451.78 227.525C452.77 227.525 453.595 227.555 454.255 227.615C454.915 227.675 455.545 227.735 456.145 227.795C456.745 227.855 457.435 227.885 458.215 227.885C458.935 227.885 459.565 227.855 460.105 227.795C460.675 227.705 461.305 227.63 461.995 227.57C462.685 227.48 463.585 227.435 464.695 227.435C468.235 227.435 470.965 228.035 472.885 229.235C474.835 230.405 475.81 232.205 475.81 234.635C475.81 235.985 475.51 237.125 474.91 238.055C474.31 238.955 473.56 239.69 472.66 240.26C471.76 240.8 470.845 241.205 469.915 241.475C469.795 241.505 469.735 241.58 469.735 241.7C469.765 241.82 469.81 241.925 469.87 242.015C470.77 243.335 471.64 244.61 472.48 245.84C473.35 247.07 474.22 248.21 475.09 249.26C475.96 250.28 476.83 251.21 477.7 252.05C478.75 253.04 479.83 253.625 480.94 253.805C482.08 253.985 483.175 254.075 484.225 254.075C484.675 254.075 484.9 254.36 484.9 254.93C484.9 255.65 484.66 256.235 484.18 256.685C483.73 257.105 483.07 257.42 482.2 257.63C481.33 257.84 480.31 257.945 479.14 257.945ZM463.75 241.43C464.83 241.43 465.715 241.19 466.405 240.71C467.095 240.23 467.605 239.57 467.935 238.73C468.295 237.86 468.475 236.855 468.475 235.715C468.475 234.275 468.295 233.105 467.935 232.205C467.575 231.305 467.05 230.645 466.36 230.225C465.7 229.775 464.89 229.55 463.93 229.55C463.33 229.55 462.88 229.805 462.58 230.315C462.31 230.825 462.175 231.95 462.175 233.69C462.175 234.35 462.175 235.19 462.175 236.21C462.175 237.2 462.175 238.37 462.175 239.72C462.175 240.32 462.31 240.755 462.58 241.025C462.88 241.295 463.27 241.43 463.75 241.43Z" fill="white"/>
<path d="M494.644 257.63C493.354 257.63 492.094 257.48 490.864 257.18C489.634 256.91 488.479 256.445 487.399 255.785C487.189 255.635 486.979 255.47 486.769 255.29C486.589 255.08 486.454 254.87 486.364 254.66C486.034 253.79 485.809 252.755 485.689 251.555C485.569 250.325 485.539 249.05 485.599 247.73C485.599 247.52 485.674 247.37 485.824 247.28C486.004 247.19 486.214 247.145 486.454 247.145C486.784 247.145 486.994 247.19 487.084 247.28C487.204 247.37 487.324 247.52 487.444 247.73C488.134 249.95 489.139 251.795 490.459 253.265C491.809 254.735 493.399 255.47 495.229 255.47C496.159 255.47 496.909 255.26 497.479 254.84C498.079 254.39 498.514 253.85 498.784 253.22C499.084 252.56 499.234 251.93 499.234 251.33C499.234 250.43 499.054 249.665 498.694 249.035C498.334 248.405 497.779 247.82 497.029 247.28C496.279 246.74 495.304 246.155 494.104 245.525C492.844 244.835 491.614 244.085 490.414 243.275C489.244 242.465 488.284 241.475 487.534 240.305C486.784 239.135 486.409 237.665 486.409 235.895C486.409 234.095 486.889 232.55 487.849 231.26C488.839 229.94 490.144 228.92 491.764 228.2C493.414 227.48 495.214 227.12 497.164 227.12C498.304 227.12 499.414 227.24 500.494 227.48C501.604 227.72 502.489 227.975 503.149 228.245C503.539 228.395 503.809 228.56 503.959 228.74C504.109 228.89 504.259 229.22 504.409 229.73C504.559 230.36 504.664 231.14 504.724 232.07C504.814 232.97 504.859 234.005 504.859 235.175C504.859 235.565 504.574 235.76 504.004 235.76C503.764 235.76 503.524 235.7 503.284 235.58C503.074 235.43 502.939 235.25 502.879 235.04C502.399 233.18 501.649 231.785 500.629 230.855C499.609 229.895 498.364 229.415 496.894 229.415C495.964 229.415 495.199 229.565 494.599 229.865C494.029 230.165 493.594 230.6 493.294 231.17C493.024 231.71 492.889 232.4 492.889 233.24C492.889 233.9 493.129 234.53 493.609 235.13C494.089 235.73 494.779 236.345 495.679 236.975C496.609 237.575 497.689 238.25 498.919 239C500.659 240.02 502.009 241.01 502.969 241.97C503.929 242.93 504.604 243.935 504.994 244.985C505.384 246.005 505.579 247.175 505.579 248.495C505.579 250.625 505.114 252.365 504.184 253.715C503.284 255.065 502.009 256.055 500.359 256.685C498.739 257.315 496.834 257.63 494.644 257.63Z" fill="white"/>
</svg>
