<svg width="94" height="39" viewBox="0 0 94 39" fill="none" xmlns="http://www.w3.org/2000/svg">
<path d="M-3.8147e-06 12.3959L20.841 0L47 8.21348V27.329L34.1361 30.6636H5.89296L5.74923 12.5409H1.79663V13.1208H-3.8147e-06V12.3959Z" fill="white"/>
<path d="M94 12.3959L73.159 0L47 8.21348V27.329L59.8639 30.6636H88.107L88.2508 12.5409H92.2034V13.1208H94V12.3959Z" fill="white"/>
<path fill-rule="evenodd" clip-rule="evenodd" d="M72.9618 1.07492L92.2268 12.5409H88.3215L88.1789 30.6647L87.8914 30.6624L88.0363 12.2509H91.1739L72.9251 1.38976L57.6361 13.1933L47.0721 9.43045L36.3639 13.1933L28.6478 7.29151L20.9317 1.38971L2.82266 12.2509H6.0367V30.6636H5.74924V12.5409H1.77673L20.894 1.07497L36.3639 13.5558L47.0721 9.64126L57.6361 13.4833L72.9618 1.07492Z" fill="#118C4F"/>
<path d="M23.6919 26.4152C23.0365 26.4152 22.3647 26.3987 21.6765 26.3656C21.0047 26.3326 20.3984 26.2995 19.8577 26.2664C19.317 26.2499 18.9401 26.2416 18.7271 26.2416C18.3994 26.2416 18.0144 26.2416 17.572 26.2416C17.1459 26.2582 16.7035 26.2747 16.2447 26.2912C15.8023 26.3078 15.4009 26.316 15.0404 26.316C14.9421 26.316 14.8438 26.283 14.7455 26.2169C14.6472 26.1507 14.598 26.0598 14.598 25.9441C14.598 25.7954 14.639 25.6797 14.7209 25.5971C14.8028 25.4979 14.9175 25.4318 15.065 25.3987C15.6876 25.2665 16.1137 25.1012 16.3431 24.9029C16.5725 24.7046 16.6872 24.3492 16.6872 23.8368V12.5814C16.6872 12.0525 16.5806 11.6806 16.3676 11.4657C16.1546 11.2509 15.7204 11.0691 15.065 10.9203C14.9175 10.8872 14.8028 10.8294 14.7209 10.7468C14.639 10.6476 14.598 10.5236 14.598 10.3749C14.598 10.2592 14.6472 10.1683 14.7455 10.1022C14.8438 10.0361 14.9421 10.003 15.0404 10.003C15.4009 10.003 15.8023 10.0113 16.2447 10.0278C16.7035 10.0443 17.1459 10.0691 17.572 10.1022C18.0144 10.1187 18.3994 10.127 18.7271 10.127C18.9729 10.127 19.3088 10.1187 19.7348 10.1022C20.1772 10.0691 20.6524 10.0443 21.1603 10.0278C21.6847 9.99474 22.1926 9.96995 22.6842 9.95342C23.1757 9.92036 23.5854 9.90384 23.9131 9.90384C25.06 9.90384 26.1497 10.1022 27.1819 10.4988C28.2142 10.879 29.1318 11.4244 29.9347 12.1351C30.7376 12.8458 31.3684 13.697 31.8272 14.6887C32.286 15.6638 32.5154 16.7464 32.5154 17.9364C32.5154 19.0272 32.3269 20.085 31.9501 21.1097C31.5732 22.1179 31.0079 23.0187 30.2542 23.8121C29.5169 24.6054 28.5993 25.2417 27.5015 25.721C26.4036 26.1838 25.1338 26.4152 23.6919 26.4152ZM23.2986 25.0516C24.3801 25.0516 25.2649 24.7872 25.953 24.2583C26.6576 23.7294 27.1738 22.9857 27.5015 22.027C27.8456 21.0684 28.0176 19.9445 28.0176 18.6553C28.0176 17.5645 27.9111 16.5728 27.6981 15.6803C27.5015 14.7878 27.1983 14.0193 26.7887 13.3747C26.3791 12.7301 25.8629 12.2343 25.2403 11.8872C24.6176 11.5236 23.8885 11.3418 23.0528 11.3418C22.5613 11.3418 22.1517 11.3583 21.8239 11.3913C21.5126 11.4244 21.275 11.4988 21.1112 11.6145C20.9473 11.7136 20.8654 11.8954 20.8654 12.1599V22.9195C20.8654 23.4319 20.9473 23.8451 21.1112 24.1591C21.2914 24.4732 21.5618 24.7046 21.9223 24.8533C22.2827 24.9855 22.7415 25.0516 23.2986 25.0516Z" fill="#118C4F"/>
<path d="M43.4872 26.5803C42.9416 26.5803 42.382 26.4674 41.8084 26.2416C41.2348 26.0159 40.7522 25.6772 40.3605 25.2256C39.9688 24.7599 39.7729 24.1743 39.7729 23.4687C39.7729 22.6926 40.0527 21.9094 40.6123 21.1192C41.1719 20.3148 41.9763 19.6586 43.0255 19.1506L43.4662 18.9389L43.3193 18.7908C43.1794 18.6355 42.9906 18.438 42.7527 18.1981C42.5289 17.9441 42.326 17.6548 42.1442 17.3302C41.9763 16.9915 41.8924 16.6176 41.8924 16.2084C41.8924 15.7145 42.0602 15.2699 42.396 14.8748C42.7317 14.4656 43.2004 14.141 43.802 13.9011C44.4035 13.6612 45.103 13.5413 45.9004 13.5413C46.544 13.5413 47.1175 13.6401 47.6212 13.8376C48.1388 14.0211 48.5445 14.2821 48.8383 14.6208C49.1321 14.9454 49.279 15.3334 49.279 15.785C49.279 16.4482 49.0761 16.9563 48.6704 17.3091C48.2787 17.6618 47.7401 17.9652 47.0546 18.2192L46.551 18.4098L47.0126 18.8966C47.3624 19.2494 47.7331 19.6375 48.1248 20.0608C48.5305 20.4841 48.9082 20.8722 49.258 21.225L49.6777 21.6483L49.9505 21.3943C50.2163 21.1544 50.4261 20.9075 50.58 20.6535C50.7479 20.3995 50.8738 20.1596 50.9577 19.9338C51.0417 19.6939 51.0837 19.4893 51.0837 19.3199C51.0837 19.0942 51.0207 18.9319 50.8948 18.8331C50.7689 18.7202 50.629 18.6355 50.4751 18.5791C50.3492 18.5226 50.2373 18.4733 50.1393 18.4309C50.0554 18.3745 50.0134 18.2827 50.0134 18.1557C50.0134 18.0005 50.0764 17.9088 50.2023 17.8806C50.3282 17.8523 50.4821 17.8382 50.664 17.8382C50.8738 17.8382 51.0907 17.8523 51.3145 17.8806C51.5383 17.9088 51.7692 17.937 52.007 17.9652C52.2588 17.9935 52.5176 18.0076 52.7834 18.0076C53.0912 18.0076 53.42 17.9652 53.7697 17.8806C54.1194 17.7959 54.4622 17.7183 54.798 17.6477C55.1337 17.5631 55.4205 17.5207 55.6583 17.5207C55.7702 17.5207 55.8542 17.556 55.9101 17.6266C55.9801 17.683 56.0151 17.7465 56.0151 17.8171C56.0151 17.9441 55.9521 18.0711 55.8262 18.1981C55.7003 18.311 55.5184 18.3886 55.2806 18.4309C54.8189 18.5156 54.4272 18.6779 54.1055 18.9178C53.7837 19.1436 53.5039 19.3764 53.2661 19.6163C53.0702 19.7997 52.8674 19.9832 52.6575 20.1666C52.4617 20.3501 52.2588 20.5335 52.049 20.717C51.8531 20.9004 51.6502 21.0839 51.4404 21.2673C51.2306 21.4367 51.0207 21.6131 50.8109 21.7965C50.601 21.9659 50.3982 22.1423 50.2023 22.3257L50.601 22.7914C51.0347 23.3135 51.4474 23.7651 51.8391 24.1461C52.2308 24.513 52.6295 24.6964 53.0352 24.6964C53.2731 24.6964 53.5319 24.6753 53.8117 24.6329C54.1055 24.5765 54.3992 24.4989 54.693 24.4001C54.763 24.3719 54.8399 24.3436 54.9239 24.3154C55.0218 24.2731 55.1127 24.2519 55.1967 24.2519C55.3086 24.2519 55.3995 24.2731 55.4695 24.3154C55.5394 24.3436 55.5744 24.4283 55.5744 24.5694C55.5744 24.7811 55.4205 25.0492 55.1127 25.3738C54.8189 25.6842 54.3992 25.9594 53.8536 26.1993C53.322 26.4392 52.6995 26.5592 51.986 26.5592C51.4264 26.5592 50.9438 26.4886 50.5381 26.3475C50.1324 26.2205 49.7616 26.0229 49.4259 25.7548C49.0901 25.4867 48.7404 25.1551 48.3766 24.7599L47.9779 24.3154L47.873 24.4424C47.4673 24.9222 47.0196 25.3244 46.53 25.649C46.0543 25.9594 45.5577 26.1923 45.0401 26.3475C44.5224 26.5027 44.0048 26.5803 43.4872 26.5803ZM45.2289 24.4424C45.5087 24.4424 45.8305 24.4213 46.1942 24.3789C46.558 24.3225 46.8937 24.139 47.2015 23.8286L47.3484 23.6804L47.0126 23.2782C46.537 22.7138 46.0683 22.1564 45.6066 21.606C45.159 21.0557 44.6903 20.4983 44.2007 19.9338L43.9489 19.6375L43.5921 19.8703C43.4102 19.9832 43.2564 20.1384 43.1305 20.336C43.0185 20.5194 42.9346 20.724 42.8786 20.9498C42.8227 21.1756 42.7947 21.4226 42.7947 21.6907C42.7947 22.5515 43.0115 23.2288 43.4452 23.7227C43.8929 24.2025 44.4875 24.4424 45.2289 24.4424ZM46.1103 17.8594L46.3201 17.6477C46.474 17.4925 46.5859 17.2526 46.6559 16.928C46.7398 16.5894 46.7818 16.2507 46.7818 15.912C46.7958 15.5028 46.7258 15.1429 46.5719 14.8325C46.4181 14.5079 46.1592 14.3456 45.7955 14.3456C45.5717 14.3456 45.3618 14.4444 45.166 14.642C44.9841 14.8395 44.8932 15.1006 44.8932 15.4252C44.8932 15.8203 44.9421 16.159 45.0401 16.4412C45.138 16.7093 45.2499 16.921 45.3758 17.0762C45.5017 17.2314 45.5997 17.3514 45.6696 17.4361L46.1103 17.8594Z" fill="#118C4F"/>
<path d="M71.3773 26.5887C70.1811 26.5887 69.0587 26.3987 68.0101 26.0185C66.9778 25.6219 66.0602 25.0682 65.2574 24.3575C64.4709 23.6302 63.8564 22.7708 63.414 21.7791C62.9716 20.7709 62.7504 19.6553 62.7504 18.4322C62.7504 17.3083 62.9634 16.234 63.3894 15.2093C63.8154 14.168 64.4299 13.2425 65.2328 12.4326C66.052 11.6227 67.0352 10.9781 68.1821 10.4988C69.3455 10.0195 70.6481 9.77988 72.09 9.77988C72.4341 9.77988 72.8274 9.80467 73.2698 9.85425C73.7122 9.90384 74.1628 9.96995 74.6216 10.0526C75.0967 10.1352 75.5391 10.2344 75.9488 10.3501C76.3748 10.4493 76.7353 10.5567 77.0302 10.6724C77.1777 10.7385 77.3006 10.8211 77.3989 10.9203C77.4972 11.0195 77.5545 11.16 77.5709 11.3418C77.6528 11.9368 77.7184 12.4987 77.7675 13.0276C77.8331 13.54 77.8659 13.978 77.8659 14.3416C77.8659 14.5069 77.8249 14.6308 77.743 14.7134C77.6774 14.7961 77.5791 14.8374 77.448 14.8374C77.2514 14.8374 77.1039 14.7961 77.0056 14.7134C76.9237 14.6143 76.8418 14.4903 76.7598 14.3416C76.6124 14.011 76.4321 13.6639 76.2191 13.3003C76.0061 12.9202 75.7603 12.5896 75.4818 12.3086C75.2688 12.0938 75.0312 11.9037 74.769 11.7384C74.5069 11.5566 74.1955 11.4161 73.8351 11.317C73.4746 11.2013 73.0404 11.1434 72.5324 11.1434C71.664 11.1434 70.8939 11.3252 70.2221 11.6888C69.5667 12.0359 69.0178 12.5235 68.5754 13.1516C68.133 13.7631 67.7971 14.4655 67.5677 15.2589C67.3547 16.0357 67.2482 16.8538 67.2482 17.7133C67.2482 18.8206 67.3301 19.8371 67.4939 20.7627C67.6742 21.6717 67.9445 22.4568 68.305 23.1179C68.6819 23.779 69.1571 24.2914 69.7305 24.655C70.304 25.0021 70.9922 25.1756 71.7951 25.1756C72.09 25.1756 72.3522 25.1178 72.5816 25.0021C72.8274 24.8698 73.0322 24.7459 73.196 24.6302C73.3599 24.5145 73.4828 24.3162 73.5647 24.0352C73.663 23.7542 73.7204 23.4402 73.7368 23.0931C73.7531 22.9443 73.7613 22.7295 73.7613 22.4485C73.7613 22.151 73.7613 21.8618 73.7613 21.5808C73.7777 21.2833 73.7859 21.0602 73.7859 20.9114C73.7859 20.7296 73.7368 20.5643 73.6384 20.4156C73.5565 20.2503 73.3927 20.1181 73.1469 20.0189C72.983 19.9528 72.8192 19.8949 72.6553 19.8454C72.5079 19.7792 72.3522 19.7297 72.1883 19.6966C72.0409 19.647 71.8934 19.6057 71.7459 19.5726C71.5985 19.5396 71.4592 19.4735 71.3281 19.3743C71.197 19.2751 71.1315 19.1512 71.1315 19.0024C71.1315 18.8867 71.1888 18.7958 71.3035 18.7297C71.4182 18.6636 71.5411 18.6306 71.6722 18.6306C72.0327 18.6306 72.4505 18.6388 72.9257 18.6553C73.4172 18.6719 73.9006 18.6967 74.3758 18.7297C74.851 18.7463 75.2524 18.7545 75.5801 18.7545C76.0553 18.7545 76.5796 18.738 77.1531 18.7049C77.743 18.6719 78.2919 18.6553 78.7998 18.6553C78.9309 18.6553 79.0292 18.6884 79.0948 18.7545C79.1603 18.8041 79.1931 18.895 79.1931 19.0272C79.1931 19.1925 79.1521 19.3165 79.0702 19.3991C78.9883 19.4652 78.8736 19.5148 78.7261 19.5479C78.2345 19.6801 77.8986 19.8371 77.7184 20.0189C77.5545 20.1842 77.4398 20.4321 77.3743 20.7627C77.3088 21.1263 77.2596 21.4486 77.2268 21.7295C77.2104 21.994 77.2023 22.2915 77.2023 22.622V23.465C77.2023 23.5476 77.235 23.6302 77.3006 23.7129C77.3825 23.7955 77.4644 23.8782 77.5463 23.9608C77.6283 24.0434 77.6856 24.1343 77.7184 24.2335C77.7675 24.3162 77.7921 24.4071 77.7921 24.5062C77.7921 24.6219 77.7512 24.7376 77.6692 24.8533C77.5873 24.9525 77.4562 25.0186 77.276 25.0516C77.1449 25.0682 76.9155 25.1591 76.5878 25.3244C76.2765 25.4731 75.875 25.6466 75.3835 25.845C74.8919 26.0433 74.3102 26.2169 73.6384 26.3656C72.9666 26.5144 72.2129 26.5887 71.3773 26.5887Z" fill="#118C4F"/>
<path d="M5.89294 31.606H88.2507V39H5.89294V31.606Z" fill="white"/>
<path d="M21.3198 37.2798C21.2939 37.2798 21.268 37.2711 21.2422 37.2537C21.2163 37.2363 21.2034 37.2124 21.2034 37.1819C21.2034 37.108 21.2443 37.0601 21.3263 37.0384C21.4729 37.0036 21.5742 36.9601 21.6302 36.9079C21.6863 36.8557 21.7143 36.7622 21.7143 36.6274V33.6654C21.7143 33.5262 21.6863 33.4283 21.6302 33.3718C21.5785 33.3153 21.4772 33.2674 21.3263 33.2283C21.2443 33.2065 21.2034 33.1587 21.2034 33.0847C21.2034 33.0543 21.2163 33.0304 21.2422 33.013C21.268 32.9956 21.2939 32.9869 21.3198 32.9869C21.4147 32.9869 21.5181 32.9891 21.6302 32.9934C21.7424 32.9978 21.8523 33.0043 21.9601 33.013C22.0679 33.0173 22.1649 33.0195 22.2512 33.0195C22.3374 33.0195 22.4409 33.0173 22.5616 33.013C22.6824 33.0086 22.8053 33.0043 22.9303 32.9999C23.0553 32.9956 23.1631 32.9934 23.2537 32.9934C23.3227 32.9934 23.3572 33.026 23.3572 33.0913C23.3572 33.1348 23.3464 33.1652 23.3248 33.1826C23.3033 33.2 23.2731 33.2152 23.2343 33.2283C23.0575 33.2805 22.9432 33.3348 22.8915 33.3914C22.8397 33.4479 22.8139 33.5414 22.8139 33.6719V34.8267C22.8139 34.8615 22.8225 34.8876 22.8397 34.905C22.8613 34.918 22.8872 34.9246 22.9174 34.9246H24.4761C24.5365 34.9246 24.5667 34.8919 24.5667 34.8267V33.6719C24.5667 33.5414 24.5408 33.4479 24.4891 33.3914C24.4373 33.3348 24.323 33.2805 24.1463 33.2283C24.1075 33.2152 24.0773 33.2 24.0557 33.1826C24.0342 33.1652 24.0234 33.1348 24.0234 33.0913C24.0234 33.026 24.0579 32.9934 24.1269 32.9934C24.2174 32.9934 24.3252 32.9956 24.4503 32.9999C24.5753 33.0043 24.6982 33.0086 24.8189 33.013C24.944 33.0173 25.0475 33.0195 25.1294 33.0195C25.2156 33.0195 25.3126 33.0173 25.4204 33.013C25.5282 33.0043 25.6382 32.9978 25.7503 32.9934C25.8624 32.9891 25.9659 32.9869 26.0608 32.9869C26.0866 32.9869 26.1125 32.9956 26.1384 33.013C26.1642 33.0304 26.1772 33.0543 26.1772 33.0847C26.1772 33.1587 26.1362 33.2065 26.0543 33.2283C25.9034 33.2674 25.7999 33.3153 25.7438 33.3718C25.6921 33.4283 25.6662 33.5262 25.6662 33.6654V36.6274C25.6662 36.7622 25.6942 36.8557 25.7503 36.9079C25.8064 36.9601 25.9077 37.0036 26.0543 37.0384C26.1362 37.0601 26.1772 37.108 26.1772 37.1819C26.1772 37.2124 26.1642 37.2363 26.1384 37.2537C26.1125 37.2711 26.0866 37.2798 26.0608 37.2798C25.9788 37.2798 25.8818 37.2754 25.7697 37.2667C25.6576 37.2624 25.5433 37.258 25.4269 37.2537C25.3148 37.2493 25.2156 37.2472 25.1294 37.2472C25.0475 37.2472 24.944 37.2493 24.8189 37.2537C24.6982 37.258 24.5753 37.2624 24.4503 37.2667C24.3252 37.2711 24.2174 37.2733 24.1269 37.2733C24.0967 37.2733 24.0708 37.2646 24.0492 37.2472C24.032 37.2298 24.0234 37.2058 24.0234 37.1754C24.0234 37.1319 24.0342 37.1015 24.0557 37.0841C24.0773 37.0667 24.1075 37.0514 24.1463 37.0384C24.3144 36.9906 24.4265 36.9405 24.4826 36.8883C24.5386 36.8318 24.5667 36.7426 24.5667 36.6208V35.4074C24.5667 35.3726 24.5602 35.3465 24.5473 35.3291C24.5343 35.3073 24.5106 35.2964 24.4761 35.2964H22.9174C22.8484 35.2964 22.8139 35.3334 22.8139 35.4074V36.6208C22.8139 36.7426 22.8419 36.8318 22.898 36.8883C22.954 36.9405 23.0661 36.9906 23.2343 37.0384C23.2731 37.0514 23.3033 37.0667 23.3248 37.0841C23.3464 37.1015 23.3572 37.1319 23.3572 37.1754C23.3572 37.2058 23.3486 37.2298 23.3313 37.2472C23.3141 37.2646 23.2882 37.2733 23.2537 37.2733C23.1631 37.2733 23.0553 37.2711 22.9303 37.2667C22.8053 37.2624 22.6824 37.258 22.5616 37.2537C22.4409 37.2493 22.3374 37.2472 22.2512 37.2472C22.1649 37.2472 22.0636 37.2493 21.9472 37.2537C21.8351 37.258 21.723 37.2624 21.6108 37.2667C21.4987 37.2754 21.4017 37.2798 21.3198 37.2798Z" fill="#118C4F"/>
<path d="M28.6985 37.3516C28.3967 37.3516 28.11 37.3015 27.8383 37.2015C27.5667 37.0971 27.3252 36.9514 27.1139 36.7644C26.9026 36.573 26.7366 36.3468 26.6159 36.0859C26.4951 35.8205 26.4348 35.527 26.4348 35.2051C26.4348 34.9093 26.4844 34.6266 26.5835 34.357C26.6827 34.0829 26.8293 33.8394 27.0234 33.6262C27.2217 33.4131 27.4653 33.2435 27.7542 33.1174C28.0431 32.9912 28.3773 32.9282 28.7568 32.9282C29.0586 32.9282 29.3453 32.9804 29.617 33.0847C29.8886 33.1848 30.1301 33.3305 30.3414 33.5219C30.5527 33.7089 30.7187 33.9351 30.8394 34.2004C30.9602 34.4613 31.0205 34.7528 31.0205 35.0746C31.0205 35.366 30.9709 35.6487 30.8718 35.9228C30.7726 36.1968 30.6238 36.4403 30.4255 36.6535C30.2314 36.8666 29.99 37.0362 29.7011 37.1624C29.4122 37.2885 29.078 37.3516 28.6985 37.3516ZM28.815 37.0449C29.0435 37.0449 29.2332 36.9753 29.3841 36.8361C29.5394 36.697 29.6558 36.5056 29.7334 36.262C29.811 36.0141 29.8498 35.7314 29.8498 35.4139C29.8498 35.1529 29.8261 34.8941 29.7787 34.6375C29.7313 34.3809 29.6579 34.1482 29.5588 33.9394C29.4596 33.7263 29.3324 33.5567 29.1772 33.4305C29.0263 33.3044 28.843 33.2413 28.6274 33.2413C28.4032 33.2413 28.2135 33.3109 28.0582 33.4501C27.9073 33.5893 27.793 33.7807 27.7154 34.0242C27.6421 34.2678 27.6055 34.5483 27.6055 34.8658C27.6055 35.1268 27.6292 35.3856 27.6766 35.6422C27.724 35.8988 27.7952 36.1337 27.8901 36.3468C27.9892 36.5556 28.1143 36.7252 28.2652 36.8557C28.4204 36.9819 28.6037 37.0449 28.815 37.0449Z" fill="#118C4F"/>
<path d="M31.459 37.2798C31.4072 37.2798 31.3684 37.2711 31.3425 37.2537C31.321 37.2363 31.3102 37.2124 31.3102 37.1819C31.3102 37.1428 31.3296 37.1189 31.3684 37.1102C31.4072 37.0971 31.446 37.0819 31.4848 37.0645C31.584 37.0253 31.6703 36.9623 31.7436 36.8753C31.8212 36.7883 31.8686 36.6796 31.8859 36.5491C31.9074 36.3882 31.9311 36.1685 31.957 35.8901C31.9829 35.6074 32.0109 35.2943 32.0411 34.9507C32.0713 34.6027 32.1014 34.2504 32.1316 33.8937C32.1359 33.872 32.1381 33.8415 32.1381 33.8024C32.1381 33.7633 32.1381 33.7198 32.1381 33.6719C32.1381 33.5849 32.123 33.5175 32.0928 33.4697C32.067 33.4218 32.026 33.3827 31.9699 33.3522C31.9225 33.3261 31.8708 33.3022 31.8147 33.2805C31.7586 33.2544 31.6983 33.2326 31.6336 33.2152C31.5819 33.2022 31.5387 33.1848 31.5042 33.163C31.4741 33.1413 31.459 33.1108 31.459 33.0717C31.459 33.0325 31.4741 33.0065 31.5042 32.9934C31.5387 32.976 31.5797 32.9673 31.6271 32.9673C31.6961 32.9673 31.7781 32.9695 31.8729 32.9738C31.9721 32.9782 32.0799 32.9825 32.1963 32.9869C32.3127 32.9869 32.4313 32.9891 32.552 32.9934C32.6771 32.9978 32.7978 32.9999 32.9142 32.9999C32.9487 32.9999 32.9811 33.013 33.0113 33.0391C33.0414 33.0652 33.0609 33.0913 33.0695 33.1174C33.104 33.2044 33.1342 33.2848 33.16 33.3588C33.1859 33.4283 33.2161 33.5066 33.2506 33.5936L34.182 35.8053C34.1906 35.8227 34.1992 35.8314 34.2078 35.8314C34.2208 35.8314 34.2294 35.8227 34.2337 35.8053L35.081 33.7502C35.1155 33.5806 35.1414 33.4479 35.1586 33.3522C35.1802 33.2522 35.1996 33.1761 35.2168 33.1239C35.2341 33.0673 35.2707 33.0391 35.3268 33.0391H35.6178C35.8075 33.0304 36.0059 33.0173 36.2129 32.9999C36.4242 32.9782 36.5902 32.9673 36.7109 32.9673C36.7583 32.9673 36.7971 32.976 36.8273 32.9934C36.8618 33.0065 36.8791 33.0325 36.8791 33.0717C36.8791 33.1108 36.864 33.1391 36.8338 33.1565C36.8036 33.1739 36.7691 33.1891 36.7303 33.2022C36.7131 33.2065 36.6893 33.2152 36.6592 33.2283C36.6333 33.2413 36.6117 33.2522 36.5945 33.2609C36.4651 33.3218 36.3703 33.3892 36.3099 33.4631C36.2538 33.5371 36.2301 33.6567 36.2387 33.822C36.2517 34.1395 36.2646 34.4113 36.2776 34.6375C36.2905 34.8637 36.3013 35.0724 36.3099 35.2638C36.3228 35.4552 36.3358 35.6574 36.3487 35.8706C36.3659 36.0793 36.3832 36.3294 36.4004 36.6208C36.4091 36.7296 36.4565 36.8187 36.5427 36.8883C36.629 36.9536 36.7368 37.0036 36.8661 37.0384C36.9049 37.0514 36.9373 37.0667 36.9631 37.0841C36.9933 37.1015 37.0084 37.1319 37.0084 37.1754C37.0084 37.2058 36.9955 37.2298 36.9696 37.2472C36.9481 37.2646 36.92 37.2733 36.8855 37.2733C36.795 37.2733 36.6829 37.2711 36.5492 37.2667C36.4198 37.2624 36.2905 37.258 36.1611 37.2537C36.0318 37.2493 35.924 37.2472 35.8377 37.2472C35.7515 37.2472 35.6502 37.2493 35.5337 37.2537C35.4216 37.258 35.3052 37.2624 35.1845 37.2667C35.0681 37.2754 34.9624 37.2798 34.8675 37.2798C34.8331 37.2798 34.8007 37.2711 34.7705 37.2537C34.7447 37.2363 34.7317 37.2124 34.7317 37.1819C34.7317 37.1428 34.7447 37.1123 34.7705 37.0906C34.8007 37.0645 34.8352 37.0471 34.874 37.0384C35.0379 37.0036 35.1521 36.9601 35.2168 36.9079C35.2815 36.8514 35.3095 36.7579 35.3009 36.6274C35.288 36.3664 35.2772 36.1011 35.2686 35.8314C35.2599 35.5618 35.2513 35.2964 35.2427 35.0355C35.2384 34.7702 35.2298 34.5201 35.2168 34.2852C35.2168 34.2591 35.2103 34.2482 35.1974 34.2526C35.1845 34.2526 35.1715 34.2678 35.1586 34.2982L33.9814 37.2406C33.9556 37.3102 33.9189 37.3385 33.8715 37.3255C33.8284 37.3124 33.7982 37.2885 33.7809 37.2537C33.5567 36.7492 33.326 36.2511 33.0889 35.7597C32.8517 35.2682 32.6404 34.7919 32.455 34.3309C32.4378 34.2874 32.4141 34.2721 32.3839 34.2852C32.358 34.2982 32.3429 34.333 32.3386 34.3896C32.33 34.5853 32.3235 34.8136 32.3192 35.0746C32.3192 35.3356 32.3214 35.5987 32.3257 35.864C32.33 36.1294 32.3321 36.3686 32.3321 36.5817C32.3321 36.7035 32.3709 36.7992 32.4486 36.8688C32.5262 36.9384 32.6512 36.9949 32.8237 37.0384C32.8625 37.0471 32.9013 37.0623 32.9401 37.0841C32.9789 37.1015 32.9983 37.1319 32.9983 37.1754C32.9983 37.2058 32.9811 37.2298 32.9466 37.2472C32.9121 37.2646 32.8776 37.2733 32.8431 37.2733C32.7267 37.2733 32.6361 37.2711 32.5714 37.2667C32.5068 37.2624 32.4464 37.2602 32.3903 37.2602C32.3386 37.2559 32.2675 37.2537 32.1769 37.2537C32.0777 37.2537 31.9721 37.2559 31.86 37.2602C31.7479 37.2646 31.653 37.2689 31.5754 37.2733C31.4978 37.2776 31.459 37.2798 31.459 37.2798Z" fill="#118C4F"/>
<path d="M37.3635 37.2928C37.3247 37.2928 37.2945 37.282 37.2729 37.2602C37.2514 37.2385 37.2406 37.2145 37.2406 37.1885C37.2406 37.1232 37.2837 37.0775 37.37 37.0514C37.5123 37.0079 37.6114 36.9623 37.6675 36.9144C37.7279 36.8666 37.758 36.7753 37.758 36.6404V33.6654C37.758 33.5262 37.73 33.4283 37.674 33.3718C37.6222 33.3109 37.5209 33.2631 37.37 33.2283C37.3182 33.2152 37.2816 33.1957 37.26 33.1696C37.2428 33.1435 37.2341 33.1174 37.2341 33.0913C37.2341 33.0608 37.2449 33.0369 37.2665 33.0195C37.2924 32.9978 37.3247 32.9869 37.3635 32.9869C37.4584 32.9869 37.5618 32.9891 37.674 32.9934C37.7861 32.9978 37.896 33.0043 38.0038 33.013C38.1116 33.0173 38.2086 33.0195 38.2949 33.0195C38.5363 33.0195 38.7951 33.0173 39.071 33.013C39.347 33.0086 39.5906 33.0043 39.8019 32.9999C39.9399 32.9999 40.052 32.9912 40.1382 32.9738C40.2288 32.9564 40.2827 32.9477 40.2999 32.9477C40.3344 32.9477 40.3689 32.9586 40.4034 32.9804C40.4422 32.9978 40.4638 33.0325 40.4681 33.0847C40.4853 33.2457 40.5069 33.4044 40.5328 33.561C40.5629 33.7132 40.578 33.8481 40.578 33.9655C40.578 34.009 40.5694 34.0416 40.5522 34.0634C40.5349 34.0851 40.5155 34.096 40.494 34.096C40.4724 34.096 40.4487 34.0873 40.4228 34.0699C40.3969 34.0525 40.3754 34.0242 40.3581 33.9851C40.3107 33.8676 40.2676 33.7698 40.2288 33.6915C40.1943 33.6089 40.1533 33.5436 40.1059 33.4958C40.0585 33.4479 39.9981 33.4023 39.9248 33.3588C39.8515 33.3109 39.7545 33.287 39.6337 33.287H39.2263C39.1185 33.287 39.0301 33.3131 38.9611 33.3653C38.8921 33.4175 38.8576 33.4914 38.8576 33.5871V34.7876C38.8576 34.8441 38.8727 34.8854 38.9029 34.9115C38.933 34.9333 38.974 34.9441 39.0257 34.9441H39.5755C39.6876 34.9441 39.7674 34.9028 39.8148 34.8202C39.8666 34.7375 39.9118 34.644 39.9507 34.5396C39.9851 34.4613 40.0304 34.4222 40.0865 34.4222C40.108 34.4222 40.1274 34.4352 40.1447 34.4613C40.1619 34.4874 40.1684 34.5244 40.1641 34.5723C40.1598 34.6331 40.1533 34.694 40.1447 34.7549C40.1404 34.8158 40.1361 34.8767 40.1318 34.9376C40.1318 34.9942 40.1318 35.0529 40.1318 35.1138C40.1318 35.1703 40.1318 35.229 40.1318 35.2899C40.1361 35.3465 40.1404 35.4052 40.1447 35.4661C40.149 35.527 40.1533 35.59 40.1576 35.6553C40.1663 35.7205 40.1619 35.7684 40.1447 35.7988C40.1318 35.8249 40.1145 35.8379 40.0929 35.8379C40.0196 35.8379 39.9679 35.7858 39.9377 35.6814C39.8989 35.5422 39.8536 35.4356 39.8019 35.3617C39.7545 35.2877 39.6898 35.2508 39.6079 35.2508H38.9999C38.9524 35.2508 38.9158 35.2638 38.8899 35.2899C38.8684 35.316 38.8576 35.353 38.8576 35.4008V36.6339C38.8576 36.7557 38.8835 36.8427 38.9352 36.8949C38.9869 36.9427 39.0667 36.9666 39.1745 36.9666H39.7502C39.8364 36.9666 39.9205 36.9558 40.0024 36.934C40.0886 36.9079 40.1619 36.8688 40.2223 36.8166C40.2956 36.7557 40.3624 36.6774 40.4228 36.5817C40.4875 36.486 40.5435 36.3903 40.591 36.2946C40.6082 36.2598 40.6255 36.2381 40.6427 36.2294C40.6643 36.2207 40.688 36.2163 40.7139 36.2163C40.7397 36.2163 40.757 36.2316 40.7656 36.262C40.7742 36.2881 40.7785 36.3164 40.7785 36.3468C40.7785 36.4251 40.7678 36.5099 40.7462 36.6013C40.7246 36.6926 40.6966 36.7905 40.6621 36.8949C40.6319 36.9949 40.6018 37.0993 40.5716 37.208C40.563 37.2385 40.5435 37.258 40.5134 37.2667C40.4832 37.2798 40.4508 37.2863 40.4163 37.2863C40.3948 37.2863 40.3107 37.2841 40.1641 37.2798C40.0175 37.2798 39.8342 37.2776 39.6143 37.2733C39.3987 37.2689 39.1724 37.2646 38.9352 37.2602C38.7024 37.2602 38.4889 37.2602 38.2949 37.2602C38.2086 37.2602 38.1095 37.2624 37.9974 37.2667C37.8852 37.2711 37.7731 37.2754 37.661 37.2798C37.5489 37.2885 37.4497 37.2928 37.3635 37.2928Z" fill="#118C4F"/>
<path d="M41.0964 37.2928C41.0576 37.2928 41.0274 37.282 41.0059 37.2602C40.9843 37.2385 40.9735 37.2145 40.9735 37.1885C40.9735 37.1232 41.0167 37.0775 41.1029 37.0514C41.2452 37.0079 41.3444 36.9623 41.4004 36.9144C41.4608 36.8666 41.491 36.7753 41.491 36.6404V33.6654C41.491 33.5262 41.4629 33.4283 41.4069 33.3718C41.3551 33.3109 41.2538 33.2631 41.1029 33.2283C41.0512 33.2152 41.0145 33.1957 40.9929 33.1696C40.9757 33.1435 40.9671 33.1174 40.9671 33.0913C40.9671 33.0608 40.9779 33.0369 40.9994 33.0195C41.0253 32.9978 41.0576 32.9869 41.0964 32.9869C41.2387 32.9869 41.3573 32.9912 41.4522 32.9999C41.547 33.0086 41.6376 33.0173 41.7238 33.026C41.8101 33.0347 41.9092 33.0391 42.0213 33.0391C42.1248 33.0391 42.2197 33.0347 42.3059 33.026C42.3922 33.013 42.487 33.0021 42.5905 32.9934C42.6983 32.9804 42.8298 32.9738 42.9851 32.9738C43.4982 32.9738 43.8884 33.0478 44.1557 33.1957C44.4274 33.3392 44.5632 33.5893 44.5632 33.9459C44.5632 34.0764 44.5309 34.2026 44.4662 34.3243C44.4058 34.4461 44.3218 34.5505 44.214 34.6375C44.145 34.694 44.0695 34.7441 43.9876 34.7876C43.91 34.8267 43.8259 34.8571 43.7353 34.8789C43.7181 34.8832 43.7095 34.8941 43.7095 34.9115C43.7095 34.9289 43.7181 34.9398 43.7353 34.9441C43.8518 34.9659 43.9703 34.9985 44.0911 35.042C44.2161 35.0811 44.3325 35.1399 44.4403 35.2181C44.5481 35.2964 44.6344 35.3987 44.6991 35.5248C44.7637 35.6466 44.7961 35.8032 44.7961 35.9945C44.7961 36.2381 44.7573 36.4316 44.6796 36.5752C44.6063 36.7187 44.5158 36.8274 44.408 36.9014C44.3002 36.9753 44.201 37.0362 44.1105 37.0841C43.9682 37.1537 43.8065 37.2058 43.6254 37.2406C43.4443 37.2711 43.2287 37.2863 42.9786 37.2863C42.8147 37.2863 42.6574 37.282 42.5064 37.2733C42.3555 37.2646 42.196 37.2602 42.0278 37.2602C41.9416 37.2602 41.8402 37.2624 41.7238 37.2667C41.6117 37.2711 41.4996 37.2754 41.3875 37.2798C41.2797 37.2885 41.1827 37.2928 41.0964 37.2928ZM42.9592 36.9079C43.0799 36.9079 43.1899 36.8709 43.289 36.797C43.3925 36.7187 43.4745 36.6143 43.5348 36.4838C43.5952 36.3534 43.6254 36.2076 43.6254 36.0467C43.6254 35.8988 43.6081 35.7771 43.5736 35.6814C43.5435 35.5857 43.5046 35.5096 43.4572 35.453C43.4141 35.3921 43.3731 35.3465 43.3343 35.316C43.3041 35.2856 43.2481 35.2551 43.1662 35.2247C43.0885 35.1899 42.9915 35.1725 42.8751 35.1725C42.819 35.1725 42.7565 35.1899 42.6875 35.2247C42.6229 35.2551 42.5905 35.3073 42.5905 35.3813V36.5034C42.5905 36.6339 42.6229 36.7339 42.6875 36.8035C42.7522 36.8731 42.8428 36.9079 42.9592 36.9079ZM42.8428 34.8593C42.9419 34.8593 43.0303 34.8484 43.1079 34.8267C43.1856 34.8006 43.2632 34.7528 43.3408 34.6832C43.371 34.6527 43.4098 34.5918 43.4572 34.5005C43.5046 34.4048 43.5284 34.27 43.5284 34.096C43.5284 33.9003 43.5046 33.7437 43.4572 33.6262C43.4141 33.5045 43.3473 33.4175 43.2567 33.3653C43.1662 33.3087 43.0541 33.2805 42.9204 33.2805C42.8126 33.2805 42.7307 33.3044 42.6746 33.3522C42.6185 33.3957 42.5905 33.4631 42.5905 33.5545V34.631C42.5905 34.7093 42.6185 34.768 42.6746 34.8071C42.735 34.8419 42.791 34.8593 42.8428 34.8593Z" fill="#118C4F"/>
<path d="M47.3882 37.3516C46.9785 37.3516 46.6357 37.2776 46.3598 37.1297C46.0881 36.9819 45.8833 36.7774 45.7453 36.5165C45.6074 36.2511 45.5384 35.9423 45.5384 35.59V33.7633C45.5384 33.6502 45.5103 33.5414 45.4543 33.437C45.4025 33.3283 45.3185 33.2587 45.202 33.2283C45.0856 33.1978 45.0274 33.15 45.0274 33.0847C45.0274 33.0543 45.0425 33.0304 45.0727 33.013C45.1072 32.9956 45.1481 32.9869 45.1956 32.9869C45.3379 32.9869 45.4888 32.9934 45.6483 33.0065C45.8079 33.0152 45.9523 33.0195 46.0817 33.0195C46.2067 33.0195 46.3619 33.0152 46.5473 33.0065C46.7371 32.9978 46.8988 32.9934 47.0324 32.9934C47.0842 32.9934 47.1251 33.0021 47.1553 33.0195C47.1855 33.0325 47.2006 33.0565 47.2006 33.0913C47.2006 33.1435 47.164 33.1826 47.0907 33.2087C47.0217 33.2304 46.9527 33.2587 46.8837 33.2935C46.8147 33.324 46.7565 33.3805 46.709 33.4631C46.6659 33.5414 46.6444 33.6545 46.6444 33.8024V35.4856C46.6444 35.7727 46.6896 36.0097 46.7802 36.1968C46.8707 36.3795 46.9893 36.5143 47.1359 36.6013C47.2868 36.6883 47.4507 36.7318 47.6275 36.7318C48.0069 36.7318 48.2915 36.623 48.4813 36.4055C48.671 36.1837 48.7658 35.8358 48.7658 35.3617C48.7658 35.2442 48.7658 35.1159 48.7658 34.9768C48.7701 34.8376 48.7723 34.6962 48.7723 34.5527C48.7766 34.4092 48.7766 34.2743 48.7723 34.1482C48.768 33.9351 48.7529 33.7741 48.727 33.6654C48.7012 33.5523 48.6624 33.4675 48.6106 33.411C48.5632 33.3501 48.4963 33.2979 48.4101 33.2544C48.3627 33.2283 48.3066 33.2065 48.2419 33.1891C48.1773 33.1674 48.1449 33.1348 48.1449 33.0913C48.1449 33.0565 48.1622 33.0325 48.1967 33.0195C48.2312 33.0021 48.2786 32.9934 48.339 32.9934C48.5071 32.9934 48.6322 32.9978 48.7141 33.0065C48.796 33.0108 48.8887 33.013 48.9922 33.013C49.0741 33.013 49.141 33.0108 49.1927 33.0065C49.2488 33.0021 49.3048 32.9978 49.3609 32.9934C49.4213 32.9891 49.4967 32.9869 49.5873 32.9869C49.6347 32.9869 49.6735 32.9934 49.7037 33.0065C49.7339 33.0195 49.749 33.0456 49.749 33.0847C49.749 33.1456 49.6929 33.1935 49.5808 33.2283C49.4299 33.2718 49.3242 33.3414 49.2639 33.437C49.2078 33.5284 49.1755 33.6567 49.1668 33.822C49.1539 34.1395 49.1453 34.4331 49.141 34.7027C49.1367 34.9724 49.1345 35.2486 49.1345 35.5313C49.1345 35.888 49.0569 36.2033 48.9017 36.4773C48.7464 36.7513 48.5351 36.9666 48.2678 37.1232C48.0048 37.2754 47.7116 37.3516 47.3882 37.3516Z" fill="#118C4F"/>
<path d="M50.0147 37.2798C49.9889 37.2798 49.963 37.2711 49.9371 37.2537C49.9113 37.2363 49.8983 37.2124 49.8983 37.1819C49.8983 37.108 49.9393 37.0601 50.0212 37.0384C50.1851 37.0036 50.2972 36.9601 50.3575 36.9079C50.4179 36.8557 50.4481 36.7622 50.4481 36.6274V33.6654C50.4481 33.5262 50.4201 33.4283 50.364 33.3718C50.308 33.3153 50.1937 33.2674 50.0212 33.2283C49.9393 33.2065 49.8983 33.1587 49.8983 33.0847C49.8983 33.0543 49.9113 33.0304 49.9371 33.013C49.963 32.9956 49.9889 32.9869 50.0147 32.9869C50.1096 32.9869 50.2153 32.9891 50.3317 32.9934C50.4524 32.9978 50.5688 33.0043 50.6809 33.013C50.7974 33.0173 50.8987 33.0195 50.9849 33.0195C51.0712 33.0195 51.1747 33.0173 51.2954 33.013C51.4161 33.0086 51.539 33.0043 51.6641 32.9999C51.7891 32.9956 51.8969 32.9934 51.9875 32.9934C52.0219 32.9934 52.0478 33.0021 52.0651 33.0195C52.0823 33.0325 52.0909 33.0565 52.0909 33.0913C52.0909 33.1348 52.0802 33.1652 52.0586 33.1826C52.037 33.2 52.0069 33.2152 51.9681 33.2283C51.7913 33.2805 51.677 33.3348 51.6253 33.3914C51.5735 33.4479 51.5476 33.5414 51.5476 33.6719V36.6208C51.5476 36.7426 51.5757 36.8318 51.6317 36.8883C51.6878 36.9405 51.7999 36.9906 51.9681 37.0384C52.0069 37.0514 52.037 37.0667 52.0586 37.0841C52.0802 37.1015 52.0909 37.1319 52.0909 37.1754C52.0909 37.2058 52.0823 37.2298 52.0651 37.2472C52.0478 37.2646 52.0219 37.2733 51.9875 37.2733C51.8969 37.2733 51.7891 37.2711 51.6641 37.2667C51.539 37.2624 51.4161 37.258 51.2954 37.2537C51.1747 37.2493 51.0712 37.2472 50.9849 37.2472C50.8987 37.2472 50.7974 37.2493 50.6809 37.2537C50.5688 37.258 50.4524 37.2624 50.3317 37.2667C50.2153 37.2754 50.1096 37.2798 50.0147 37.2798Z" fill="#118C4F"/>
<path d="M52.4411 37.2928C52.4023 37.2928 52.3721 37.282 52.3506 37.2602C52.329 37.2385 52.3182 37.2145 52.3182 37.1885C52.3182 37.1624 52.329 37.1363 52.3506 37.1102C52.3721 37.0841 52.4045 37.0645 52.4476 37.0514C52.5899 37.0079 52.6891 36.9623 52.7451 36.9144C52.8055 36.8666 52.8357 36.7753 52.8357 36.6404V33.6654C52.8357 33.5697 52.8227 33.4958 52.7969 33.4436C52.7753 33.3914 52.7343 33.3501 52.674 33.3196C52.6136 33.2848 52.5252 33.2544 52.4088 33.2283C52.3268 33.2065 52.2859 33.1587 52.2859 33.0847C52.2859 33.0543 52.2988 33.0304 52.3247 33.013C52.3506 32.9956 52.3764 32.9869 52.4023 32.9869C52.4972 32.9869 52.6028 32.9891 52.7192 32.9934C52.84 32.9978 52.9564 33.0043 53.0685 33.013C53.1849 33.0173 53.2863 33.0195 53.3725 33.0195C53.4587 33.0195 53.5622 33.0173 53.6829 33.013C53.8037 33.0086 53.9266 33.0043 54.0516 32.9999C54.1767 32.9956 54.2845 32.9934 54.375 32.9934C54.4095 32.9934 54.4354 33.0021 54.4526 33.0195C54.4699 33.0325 54.4785 33.0565 54.4785 33.0913C54.4785 33.1348 54.4677 33.1652 54.4462 33.1826C54.4246 33.2 54.3944 33.2152 54.3556 33.2283C54.1788 33.2805 54.0646 33.3348 54.0128 33.3914C53.9611 33.4479 53.9352 33.5414 53.9352 33.6719V36.5752C53.9352 36.697 53.9611 36.784 54.0128 36.8361C54.0646 36.884 54.1443 36.9079 54.2521 36.9079H54.8795C54.9701 36.9079 55.052 36.8927 55.1253 36.8622C55.1986 36.8274 55.2654 36.7818 55.3258 36.7252C55.3991 36.6556 55.4638 36.5752 55.5198 36.4838C55.5802 36.3882 55.6319 36.2925 55.6751 36.1968C55.7225 36.0967 55.757 36.038 55.7785 36.0206C55.8044 35.9989 55.8303 35.988 55.8562 35.988C55.8907 35.988 55.9144 36.0032 55.9273 36.0337C55.9402 36.0641 55.9467 36.0946 55.9467 36.125C55.9467 36.1337 55.9424 36.1555 55.9338 36.1903C55.9252 36.225 55.9208 36.2533 55.9208 36.2751C55.8863 36.4055 55.8562 36.5186 55.8303 36.6143C55.8044 36.7057 55.7829 36.7948 55.7656 36.8818C55.7527 36.9645 55.7397 37.0601 55.7268 37.1689C55.7225 37.1993 55.7117 37.2276 55.6945 37.2537C55.6815 37.2798 55.6557 37.2928 55.6169 37.2928C55.5565 37.2928 55.4422 37.2907 55.2741 37.2863C55.1102 37.282 54.9183 37.2776 54.6984 37.2733C54.4785 37.2733 54.25 37.2711 54.0128 37.2667C53.78 37.2624 53.5665 37.2602 53.3725 37.2602C53.2863 37.2602 53.1871 37.2624 53.075 37.2667C52.9629 37.2711 52.8507 37.2754 52.7386 37.2798C52.6265 37.2885 52.5274 37.2928 52.4411 37.2928Z" fill="#118C4F"/>
<path d="M58.4688 37.3059C58.2963 37.3059 58.1195 37.3015 57.9384 37.2928C57.7616 37.2841 57.6021 37.2754 57.4598 37.2667C57.3175 37.2624 57.2183 37.2602 57.1623 37.2602C57.076 37.2602 56.9747 37.2602 56.8583 37.2602C56.7462 37.2646 56.6297 37.2689 56.509 37.2733C56.3926 37.2776 56.2869 37.2798 56.1921 37.2798C56.1662 37.2798 56.1403 37.2711 56.1145 37.2537C56.0886 37.2363 56.0757 37.2124 56.0757 37.1819C56.0757 37.1428 56.0864 37.1123 56.108 37.0906C56.1296 37.0645 56.1597 37.0471 56.1986 37.0384C56.3624 37.0036 56.4745 36.9601 56.5349 36.9079C56.5953 36.8557 56.6254 36.7622 56.6254 36.6274V33.6654C56.6254 33.5262 56.5974 33.4283 56.5414 33.3718C56.4853 33.3153 56.371 33.2674 56.1986 33.2283C56.1597 33.2196 56.1296 33.2044 56.108 33.1826C56.0864 33.1565 56.0757 33.1239 56.0757 33.0847C56.0757 33.0543 56.0886 33.0304 56.1145 33.013C56.1403 32.9956 56.1662 32.9869 56.1921 32.9869C56.2869 32.9869 56.3926 32.9891 56.509 32.9934C56.6297 32.9978 56.7462 33.0043 56.8583 33.013C56.9747 33.0173 57.076 33.0195 57.1623 33.0195C57.2269 33.0195 57.3153 33.0173 57.4275 33.013C57.5439 33.0043 57.6689 32.9978 57.8026 32.9934C57.9406 32.9847 58.0742 32.9782 58.2036 32.9738C58.333 32.9651 58.4408 32.9608 58.527 32.9608C58.8288 32.9608 59.1156 33.013 59.3872 33.1174C59.6589 33.2174 59.9003 33.3609 60.1116 33.548C60.3229 33.735 60.4889 33.959 60.6097 34.2199C60.7304 34.4766 60.7908 34.7615 60.7908 35.0746C60.7908 35.3617 60.7412 35.64 60.642 35.9097C60.5428 36.175 60.3941 36.4121 60.1957 36.6208C60.0017 36.8296 59.7602 36.9971 59.4713 37.1232C59.1824 37.245 58.8482 37.3059 58.4688 37.3059ZM58.3653 36.9471C58.6499 36.9471 58.8827 36.8775 59.0638 36.7383C59.2492 36.5991 59.3851 36.4034 59.4713 36.1511C59.5619 35.8988 59.6071 35.6031 59.6071 35.2638C59.6071 34.9768 59.5791 34.7158 59.5231 34.4809C59.4713 34.246 59.3915 34.0438 59.2837 33.8742C59.1759 33.7045 59.0401 33.5741 58.8763 33.4827C58.7124 33.387 58.5205 33.3392 58.3006 33.3392C58.1713 33.3392 58.0635 33.3435 57.9772 33.3522C57.8953 33.3609 57.8328 33.3805 57.7897 33.411C57.7465 33.437 57.725 33.4849 57.725 33.5545V36.386C57.725 36.5208 57.7465 36.6295 57.7897 36.7122C57.8371 36.7948 57.9082 36.8557 58.0031 36.8949C58.098 36.9297 58.2187 36.9471 58.3653 36.9471Z" fill="#118C4F"/>
<path d="M61.176 37.2928C61.1371 37.2928 61.107 37.282 61.0854 37.2602C61.0638 37.2385 61.0531 37.2145 61.0531 37.1885C61.0531 37.1232 61.0962 37.0775 61.1824 37.0514C61.3247 37.0079 61.4239 36.9623 61.4799 36.9144C61.5403 36.8666 61.5705 36.7753 61.5705 36.6404V33.6654C61.5705 33.5262 61.5425 33.4283 61.4864 33.3718C61.4347 33.3109 61.3333 33.2631 61.1824 33.2283C61.1307 33.2152 61.094 33.1957 61.0725 33.1696C61.0552 33.1435 61.0466 33.1174 61.0466 33.0913C61.0466 33.0608 61.0574 33.0369 61.0789 33.0195C61.1048 32.9978 61.1371 32.9869 61.176 32.9869C61.2708 32.9869 61.3743 32.9891 61.4864 32.9934C61.5985 32.9978 61.7085 33.0043 61.8163 33.013C61.9241 33.0173 62.0211 33.0195 62.1073 33.0195C62.3488 33.0195 62.6075 33.0173 62.8835 33.013C63.1594 33.0086 63.4031 33.0043 63.6143 32.9999C63.7523 32.9999 63.8644 32.9912 63.9507 32.9738C64.0412 32.9564 64.0951 32.9477 64.1124 32.9477C64.1469 32.9477 64.1814 32.9586 64.2159 32.9804C64.2547 32.9978 64.2762 33.0325 64.2805 33.0847C64.2978 33.2457 64.3194 33.4044 64.3452 33.561C64.3754 33.7132 64.3905 33.8481 64.3905 33.9655C64.3905 34.009 64.3819 34.0416 64.3646 34.0634C64.3474 34.0851 64.328 34.096 64.3064 34.096C64.2849 34.096 64.2611 34.0873 64.2353 34.0699C64.2094 34.0525 64.1878 34.0242 64.1706 33.9851C64.1232 33.8676 64.08 33.7698 64.0412 33.6915C64.0067 33.6089 63.9658 33.5436 63.9183 33.4958C63.8709 33.4479 63.8105 33.4023 63.7372 33.3588C63.6639 33.3109 63.5669 33.287 63.4462 33.287H63.0387C62.9309 33.287 62.8425 33.3131 62.7735 33.3653C62.7045 33.4175 62.67 33.4914 62.67 33.5871V34.7876C62.67 34.8441 62.6851 34.8854 62.7153 34.9115C62.7455 34.9333 62.7865 34.9441 62.8382 34.9441H63.388C63.5001 34.9441 63.5799 34.9028 63.6273 34.8202C63.679 34.7375 63.7243 34.644 63.7631 34.5396C63.7976 34.4613 63.8429 34.4222 63.8989 34.4222C63.9205 34.4222 63.9399 34.4352 63.9571 34.4613C63.9744 34.4874 63.9809 34.5244 63.9766 34.5723C63.9722 34.6331 63.9658 34.694 63.9571 34.7549C63.9528 34.8158 63.9485 34.8767 63.9442 34.9376C63.9442 34.9942 63.9442 35.0529 63.9442 35.1138C63.9442 35.1703 63.9442 35.229 63.9442 35.2899C63.9485 35.3465 63.9528 35.4052 63.9571 35.4661C63.9615 35.527 63.9658 35.59 63.9701 35.6553C63.9787 35.7205 63.9744 35.7684 63.9571 35.7988C63.9442 35.8249 63.927 35.8379 63.9054 35.8379C63.8321 35.8379 63.7804 35.7858 63.7502 35.6814C63.7114 35.5422 63.6661 35.4356 63.6143 35.3617C63.5669 35.2877 63.5022 35.2508 63.4203 35.2508H62.8123C62.7649 35.2508 62.7283 35.2638 62.7024 35.2899C62.6808 35.316 62.67 35.353 62.67 35.4008V36.6339C62.67 36.7557 62.6959 36.8427 62.7477 36.8949C62.7994 36.9427 62.8792 36.9666 62.987 36.9666H63.5626C63.6488 36.9666 63.7329 36.9558 63.8149 36.934C63.9011 36.9079 63.9744 36.8688 64.0348 36.8166C64.1081 36.7557 64.1749 36.6774 64.2353 36.5817C64.2999 36.486 64.356 36.3903 64.4034 36.2946C64.4207 36.2598 64.4379 36.2381 64.4552 36.2294C64.4767 36.2207 64.5005 36.2163 64.5263 36.2163C64.5522 36.2163 64.5694 36.2316 64.5781 36.262C64.5867 36.2881 64.591 36.3164 64.591 36.3468C64.591 36.4251 64.5802 36.5099 64.5587 36.6013C64.5371 36.6926 64.5091 36.7905 64.4746 36.8949C64.4444 36.9949 64.4142 37.0993 64.384 37.208C64.3754 37.2385 64.356 37.258 64.3258 37.2667C64.2956 37.2798 64.2633 37.2863 64.2288 37.2863C64.2072 37.2863 64.1232 37.2841 63.9766 37.2798C63.8299 37.2798 63.6467 37.2776 63.4268 37.2733C63.2112 37.2689 62.9848 37.2646 62.7477 37.2602C62.5148 37.2602 62.3014 37.2602 62.1073 37.2602C62.0211 37.2602 61.9219 37.2624 61.8098 37.2667C61.6977 37.2711 61.5856 37.2754 61.4735 37.2798C61.3614 37.2885 61.2622 37.2928 61.176 37.2928Z" fill="#118C4F"/>
<path d="M68.8672 37.3972C68.6258 37.3972 68.4231 37.3668 68.2593 37.3059C68.0997 37.245 67.966 37.1667 67.8582 37.071C67.7504 36.971 67.6534 36.8622 67.5672 36.7448C67.4766 36.6187 67.3882 36.4925 67.302 36.3664C67.2158 36.2359 67.1317 36.0989 67.0498 35.9554C66.9678 35.8075 66.8859 35.6444 66.804 35.4661C66.7609 35.3704 66.7091 35.3051 66.6488 35.2703C66.6229 35.2529 66.5948 35.2421 66.5647 35.2377C66.5388 35.229 66.5151 35.2247 66.4935 35.2247C66.472 35.2247 66.4547 35.2377 66.4418 35.2638C66.4332 35.2856 66.4288 35.316 66.4288 35.3552V36.6208C66.4288 36.7557 66.4655 36.8492 66.5388 36.9014C66.6164 36.9536 66.7479 36.9992 66.9333 37.0384C66.9721 37.0471 67.0023 37.0623 67.0239 37.0841C67.0454 37.1015 67.0562 37.1319 67.0562 37.1754C67.0562 37.2058 67.0476 37.2298 67.0304 37.2472C67.0131 37.2646 66.9872 37.2733 66.9527 37.2733C66.8622 37.2733 66.7479 37.2711 66.6099 37.2667C66.472 37.2624 66.334 37.258 66.196 37.2537C66.0623 37.2493 65.9524 37.2472 65.8661 37.2472C65.7799 37.2472 65.6786 37.2493 65.5621 37.2537C65.45 37.258 65.3336 37.2624 65.2129 37.2667C65.0965 37.2754 64.9908 37.2798 64.896 37.2798C64.8701 37.2798 64.8442 37.2711 64.8183 37.2537C64.7925 37.2363 64.7795 37.2124 64.7795 37.1819C64.7795 37.108 64.8205 37.0601 64.9024 37.0384C65.0663 37.0036 65.1784 36.9601 65.2388 36.9079C65.2991 36.8557 65.3293 36.7622 65.3293 36.6274V33.6654C65.3293 33.5697 65.3185 33.4958 65.297 33.4436C65.2754 33.387 65.2366 33.3435 65.1805 33.3131C65.1245 33.2783 65.0447 33.25 64.9412 33.2283C64.8895 33.2152 64.8528 33.1957 64.8313 33.1696C64.814 33.1435 64.8054 33.1174 64.8054 33.0913C64.8054 33.0608 64.8162 33.0369 64.8377 33.0195C64.8636 32.9978 64.896 32.9869 64.9348 32.9869C65.0771 32.9869 65.1956 32.9912 65.2905 32.9999C65.3854 33.0086 65.4759 33.0173 65.5621 33.026C65.6484 33.0347 65.7476 33.0391 65.8597 33.0391C65.9632 33.0391 66.0537 33.0347 66.1313 33.026C66.2132 33.013 66.3038 33.0021 66.403 32.9934C66.5021 32.9804 66.6315 32.9738 66.791 32.9738C67.2999 32.9738 67.6922 33.0608 67.9682 33.2348C68.2485 33.4044 68.3886 33.6654 68.3886 34.0177C68.3886 34.2134 68.3455 34.3787 68.2593 34.5135C68.173 34.644 68.0652 34.7506 67.9359 34.8332C67.8065 34.9115 67.675 34.9702 67.5413 35.0094C67.5241 35.0137 67.5154 35.0246 67.5154 35.042C67.5198 35.0594 67.5262 35.0746 67.5349 35.0877C67.6642 35.279 67.7892 35.4639 67.91 35.6422C68.035 35.8205 68.1601 35.9858 68.2851 36.1381C68.4102 36.2859 68.5352 36.4208 68.6603 36.5426C68.8112 36.6861 68.9664 36.7709 69.126 36.797C69.2898 36.8231 69.4472 36.8361 69.5981 36.8361C69.6628 36.8361 69.6951 36.8775 69.6951 36.9601C69.6951 37.0645 69.6606 37.1493 69.5916 37.2145C69.527 37.2754 69.4321 37.3211 69.3071 37.3516C69.182 37.382 69.0354 37.3972 68.8672 37.3972ZM66.6552 35.0029C66.8104 35.0029 66.9377 34.9681 67.0368 34.8985C67.136 34.8289 67.2093 34.7332 67.2567 34.6114C67.3085 34.4853 67.3344 34.3396 67.3344 34.1743C67.3344 33.9655 67.3085 33.7959 67.2567 33.6654C67.205 33.5349 67.1295 33.4392 67.0304 33.3783C66.9355 33.3131 66.8191 33.2805 66.6811 33.2805C66.5948 33.2805 66.5302 33.3174 66.4871 33.3914C66.4482 33.4653 66.4288 33.6284 66.4288 33.8807C66.4288 33.9764 66.4288 34.0982 66.4288 34.246C66.4288 34.3896 66.4288 34.5592 66.4288 34.7549C66.4288 34.8419 66.4482 34.905 66.4871 34.9441C66.5302 34.9833 66.5862 35.0029 66.6552 35.0029Z" fill="#118C4F"/>
<path d="M71.0956 37.3516C70.9102 37.3516 70.7291 37.3298 70.5523 37.2863C70.3755 37.2472 70.2095 37.1798 70.0543 37.0841C70.0241 37.0623 69.9939 37.0384 69.9637 37.0123C69.9379 36.9819 69.9185 36.9514 69.9055 36.921C69.8581 36.7948 69.8258 36.6448 69.8085 36.4708C69.7913 36.2925 69.787 36.1076 69.7956 35.9162C69.7956 35.8858 69.8064 35.864 69.8279 35.851C69.8538 35.8379 69.884 35.8314 69.9185 35.8314C69.9659 35.8314 69.9961 35.8379 70.009 35.851C70.0263 35.864 70.0435 35.8858 70.0608 35.9162C70.1599 36.2381 70.3044 36.5056 70.4941 36.7187C70.6882 36.9318 70.9167 37.0384 71.1797 37.0384C71.3134 37.0384 71.4212 37.0079 71.5031 36.9471C71.5893 36.8818 71.6519 36.8035 71.6907 36.7122C71.7338 36.6165 71.7553 36.5252 71.7553 36.4382C71.7553 36.3077 71.7295 36.1968 71.6777 36.1054C71.626 36.0141 71.5462 35.9293 71.4384 35.851C71.3306 35.7727 71.1905 35.6879 71.018 35.5966C70.8369 35.4965 70.6601 35.3878 70.4877 35.2703C70.3195 35.1529 70.1815 35.0094 70.0737 34.8397C69.9659 34.6701 69.912 34.457 69.912 34.2004C69.912 33.9394 69.981 33.7154 70.119 33.5284C70.2613 33.337 70.4488 33.1891 70.6817 33.0847C70.9188 32.9804 71.1776 32.9282 71.4578 32.9282C71.6217 32.9282 71.7812 32.9456 71.9365 32.9804C72.096 33.0152 72.2232 33.0521 72.3181 33.0913C72.3741 33.113 72.4129 33.1369 72.4345 33.163C72.456 33.1848 72.4776 33.2326 72.4992 33.3066C72.5207 33.3979 72.5358 33.511 72.5444 33.6458C72.5574 33.7763 72.5638 33.9264 72.5638 34.096C72.5638 34.1525 72.5229 34.1808 72.4409 34.1808C72.4065 34.1808 72.372 34.1721 72.3375 34.1547C72.3073 34.133 72.2879 34.1069 72.2793 34.0764C72.2103 33.8068 72.1025 33.6045 71.9559 33.4697C71.8092 33.3305 71.6303 33.2609 71.419 33.2609C71.2854 33.2609 71.1754 33.2826 71.0892 33.3261C71.0072 33.3696 70.9447 33.4327 70.9016 33.5153C70.8628 33.5936 70.8434 33.6937 70.8434 33.8155C70.8434 33.9111 70.8779 34.0025 70.9469 34.0895C71.0159 34.1765 71.115 34.2656 71.2444 34.357C71.3781 34.4439 71.5333 34.5418 71.7101 34.6505C71.9602 34.7984 72.1542 34.942 72.2922 35.0811C72.4302 35.2203 72.5272 35.366 72.5832 35.5183C72.6393 35.6661 72.6673 35.8358 72.6673 36.0271C72.6673 36.336 72.6005 36.5882 72.4668 36.784C72.3375 36.9797 72.1542 37.1232 71.917 37.2145C71.6842 37.3059 71.4104 37.3516 71.0956 37.3516Z" fill="#118C4F"/>
</svg>
