<svg width="47" height="40" viewBox="0 0 47 40" fill="none" xmlns="http://www.w3.org/2000/svg">
<g clip-path="url(#clip0_30_84)">
<path d="M4.35 0H41.735C42.8887 0 43.9951 0.458302 44.8109 1.27409C45.6267 2.08987 46.085 3.19631 46.085 4.35C46.085 5.50369 45.6267 6.61013 44.8109 7.42591C43.9951 8.2417 42.8887 8.7 41.735 8.7H4.35C3.19631 8.7 2.08987 8.2417 1.27409 7.42591C0.458302 6.61013 0 5.50369 0 4.35C0 3.19631 0.458302 2.08987 1.27409 1.27409C2.08987 0.458302 3.19631 0 4.35 0V0Z" fill="white"/>
<path d="M4.35 15.65H41.735C42.3063 15.65 42.8719 15.7625 43.3997 15.9811C43.9274 16.1997 44.407 16.5201 44.8109 16.9241C45.2148 17.328 45.5353 17.8076 45.7539 18.3353C45.9725 18.8631 46.085 19.4287 46.085 20C46.085 20.5712 45.9725 21.1369 45.7539 21.6647C45.5353 22.1924 45.2148 22.672 44.8109 23.0759C44.407 23.4798 43.9274 23.8003 43.3997 24.0189C42.8719 24.2375 42.3063 24.35 41.735 24.35H4.35C3.77875 24.35 3.21309 24.2375 2.68533 24.0189C2.15756 23.8003 1.67802 23.4798 1.27409 23.0759C0.870151 22.672 0.549732 22.1924 0.331124 21.6647C0.112516 21.1369 0 20.5712 0 20C0 19.4287 0.112516 18.8631 0.331124 18.3353C0.549732 17.8076 0.870151 17.328 1.27409 16.9241C1.67802 16.5201 2.15756 16.1997 2.68533 15.9811C3.21309 15.7625 3.77875 15.65 4.35 15.65Z" fill="white"/>
<path d="M4.35 31.3017H41.735C42.3063 31.3017 42.8719 31.4142 43.3997 31.6328C43.9274 31.8514 44.407 32.1718 44.8109 32.5758C45.2148 32.9797 45.5353 33.4592 45.7539 33.987C45.9725 34.5148 46.085 35.0804 46.085 35.6517C46.085 36.2229 45.9725 36.7886 45.7539 37.3163C45.5353 37.8441 45.2148 38.3236 44.8109 38.7276C44.407 39.1315 43.9274 39.4519 43.3997 39.6705C42.8719 39.8891 42.3063 40.0017 41.735 40.0017H4.35C3.77875 40.0017 3.21309 39.8891 2.68533 39.6705C2.15756 39.4519 1.67802 39.1315 1.27409 38.7276C0.870151 38.3236 0.549732 37.8441 0.331124 37.3163C0.112516 36.7886 0 36.2229 0 35.6517C0 35.0804 0.112516 34.5148 0.331124 33.987C0.549732 33.4592 0.870151 32.9797 1.27409 32.5758C1.67802 32.1718 2.15756 31.8514 2.68533 31.6328C3.21309 31.4142 3.77875 31.3017 4.35 31.3017Z" fill="white"/>
</g>
<defs>
<clipPath id="clip0_30_84">
<rect width="46.6667" height="40" fill="white"/>
</clipPath>
</defs>
</svg>
