<svg width="47" height="40" viewBox="0 0 47 40" fill="none" xmlns="http://www.w3.org/2000/svg">
<path d="M13.2275 4.07566L39.6649 30.5087C40.4807 31.3244 40.9391 32.4308 40.9392 33.5845C40.9393 34.7382 40.4811 35.8447 39.6654 36.6605C38.8497 37.4764 37.7433 37.9348 36.5896 37.9349C35.4359 37.9349 34.3294 37.4767 33.5136 36.661L7.07621 10.228C6.26036 9.41228 5.80196 8.30588 5.80187 7.15218C5.80178 5.99849 6.25999 4.89202 7.0757 4.07617C7.89142 3.26032 8.99782 2.80192 10.1515 2.80183C11.3052 2.80173 12.4117 3.25995 13.2275 4.07566V4.07566Z" fill="white"/>
<path d="M6.2735 29.3345L33.9672 4.22079C34.3904 3.83705 34.885 3.54041 35.4228 3.34782C35.9606 3.15523 36.5311 3.07045 37.1016 3.09833C37.6722 3.1262 38.2317 3.26619 38.7482 3.51029C39.2646 3.75439 39.728 4.09783 40.1117 4.52099C40.4954 4.94416 40.7921 5.43877 40.9847 5.97657C41.1773 6.51438 41.262 7.08485 41.2342 7.65542C41.2063 8.22599 41.0663 8.78548 40.8222 9.30195C40.5781 9.81842 40.2347 10.2818 39.8115 10.6655L12.1178 35.7792C11.6946 36.1629 11.2 36.4596 10.6622 36.6521C10.1244 36.8447 9.55394 36.9295 8.98337 36.9016C8.4128 36.8738 7.85331 36.7338 7.33684 36.4897C6.82037 36.2456 6.35704 35.9021 5.9733 35.479C5.58955 35.0558 5.29292 34.5612 5.10032 34.0234C4.90773 33.4856 4.82295 32.9151 4.85083 32.3445C4.87871 31.774 5.01869 31.2145 5.26279 30.698C5.5069 30.1815 5.85033 29.7182 6.2735 29.3345V29.3345Z" fill="white"/>
</svg>
